<svg xmlns="http://www.w3.org/2000/svg" xmlns:xlink="http://www.w3.org/1999/xlink" version="1.1" x="0px" y="0px" viewBox="0 0 100 125" enable-background="new 0 0 100 100" xml:space="preserve"><g><g><path fill="#000000" d="M58.97559,79.67871c-1.38281,0.01562-2.57812,0.0293-3.37988-0.04199    c-4.41602-0.38965-15.25879-0.62891-21.08789-0.62891c-0.79358,0-1.62781-0.05688-2.47449-0.14819    c-0.0166-0.02991-0.02014-0.06348-0.04016-0.09204c-1.20312-1.71924-1.21118-2.97559-1.05756-3.66675    c0.31641,0.05664,0.63336,0.11182,0.95306,0.15015c2.97266,0.35645,6.03125,0.7832,8.98828,1.19629    c3.25195,0.4541,6.61426,0.92383,9.89062,1.30371c3.76367,0.43652,6.29785,0.53711,8.33496,0.61816    c2.72754,0.1084,4.69727,0.18652,8.01465,0.94629c0.0752,0.01758,0.15039,0.02539,0.22461,0.02539    c0.45605,0,0.86719-0.31348,0.97363-0.77637c0.12305-0.53906-0.21289-1.0752-0.75098-1.19824    c-3.49902-0.80176-5.6543-0.8877-8.38281-0.99609c-2.10742-0.08301-4.49512-0.17773-8.18359-0.60547    c-3.25293-0.37793-6.60352-0.8457-9.84375-1.29785c-2.96777-0.41406-6.03516-0.84277-9.02734-1.20215    c-0.47357-0.05676-0.94446-0.14526-1.4126-0.24731c-0.11212-0.0459-0.22443-0.07056-0.34192-0.07422    c-4.36401-1.04749-8.30493-3.79626-9.49548-4.68335c0.02148-0.0625,0.05762-0.13281,0.11621-0.20605    c0.20605-0.25781,0.95117-0.8623,3.41309-0.9209c1.78906-0.04395,3.80176,0.0918,5.94043,0.23242    c4.08008,0.26953,8.30176,0.54883,11.33594-0.40332c0.52734-0.16602,0.81934-0.72754,0.6543-1.25391    c-0.16602-0.52539-0.72363-0.82031-1.25391-0.6543c-1.53943,0.48389-3.53418,0.5957-5.68835,0.55884    c0.96204-4.29932-0.75214-7.24756-1.91321-8.66333c1.84375-0.63013,3.48846-1.40308,4.76758-2.4043    c1.2207-0.95508,2.80176-2.22559,4.4668-3.56348c2.29199-1.8418,4.66211-3.74707,6.52637-5.18066    c3.33984-2.56934,10.53809-13.15723,10.86523-13.64062c1.92383-3.09668,5.51758-8.28027,6.97266-9.00781    c1.8457-0.92285,4.8125-1.98633,9.24805-0.56738c1.8407,0.58911,2.4306,1.52319,2.6109,1.94727    c-1.55035,0.56494-3.79614,1.30615-4.84918,1.35156c-2.37286,0.10181-4.65735,0.95483-6.34705,1.7782    c0.0611-0.3905-0.11145-0.79639-0.47131-1.0116c-0.47461-0.28418-1.08691-0.12988-1.37109,0.34277    c-0.3291,0.54883-3.19238,5.46289-2.27539,8.8584c0.12109,0.44629,0.52441,0.73926,0.96484,0.73926    c0.08691,0,0.1748-0.01074,0.26172-0.03418c0.5332-0.14453,0.84863-0.69336,0.70508-1.22656    c-0.33429-1.23657,0.12158-2.99927,0.72021-4.53137c0.67908-0.45813,4.26459-2.76135,7.89893-2.91687    c1.22559-0.05273,3.33594-0.71973,4.87109-1.26172L79.0293,26.6875C77.9248,30.83008,76.7832,35.11426,76.5,39.51562    c-0.16992,2.66211-2.18848,4.32031-3.85254,5.24219c-0.48242,0.26855-0.65723,0.87695-0.38965,1.36035    c0.18359,0.3291,0.52441,0.51465,0.87598,0.51465c0.16406,0,0.33008-0.04004,0.48438-0.125    c2.96777-1.64648,4.7002-4.08398,4.87793-6.86426c0.27051-4.2041,1.38672-8.3916,2.46484-12.44141l0.51465-1.94141    c0.09473-0.36523-0.02246-0.75195-0.30566-1.00195c-0.08167-0.07251-0.17474-0.12476-0.27222-0.16602    c-0.25323-0.78894-1.11523-2.5022-3.96021-3.41211c-3.85156-1.23438-7.36816-1.00977-10.75195,0.68262    c-0.315,0.15759-0.66888,0.42419-1.04517,0.76257c-0.43115-0.43604-1.19659-1.05969-2.59058-1.95886    c-0.46484-0.29785-1.08301-0.16602-1.38281,0.29883c-0.29883,0.46387-0.16504,1.08301,0.29883,1.38281    c0.97394,0.62793,1.96411,1.37415,2.29535,1.71899c-0.27405,0.31787-0.55035,0.64893-0.82782,0.99902    c-1.1499-0.73718-3.427-1.07422-3.87671-1.13403c-0.55273-0.07324-1.05078,0.31152-1.12402,0.8584    c-0.07324,0.54785,0.31152,1.05078,0.8584,1.12402c0.87244,0.11646,2.27753,0.4198,2.92572,0.75806    c-0.31256,0.42969-0.61407,0.8573-0.90442,1.27588c-1.68689-0.51404-4.0033-0.60425-4.10333-0.60718    c-0.01172-0.00098-0.02344-0.00098-0.03613-0.00098c-0.53516,0-0.97949,0.4248-0.99805,0.96484    c-0.01953,0.55176,0.41113,1.01465,0.96387,1.03418c0.01837,0.00085,1.62347,0.06372,2.98749,0.36475    c-0.55853,0.84937-0.98657,1.53003-1.1955,1.8667c-0.00476,0.00696-0.04059,0.05969-0.10223,0.14978    c-1.04639-0.80261-3.13025-1.82385-3.38507-1.94763c-0.49902-0.23828-1.09473-0.03027-1.33594,0.46484    c-0.24023,0.49707-0.03223,1.09473,0.46484,1.33594c0.91748,0.4436,2.52942,1.30176,3.11572,1.79004    c-0.38049,0.54199-0.83215,1.17969-1.33051,1.87256c-0.77637-0.90002-2.1911-1.97559-3.1026-2.62646    c-0.44824-0.32031-1.07324-0.21582-1.39453,0.23242c-0.32129,0.44922-0.2168,1.07324,0.23242,1.39453    c1.35938,0.97168,2.7207,2.13867,2.90234,2.47461c0.03247,0.0813,0.07941,0.15161,0.12903,0.21899    c-0.46698,0.6333-0.95312,1.2832-1.44611,1.92822c-1.03558-1.51855-2.91339-3.65955-3.00323-3.76147    c-0.36426-0.41406-0.99707-0.45508-1.41113-0.09082c-0.41504,0.36426-0.45508,0.99609-0.09082,1.41113    c0.02344,0.02637,2.36328,2.69434,3.13867,4.0127c0.01984,0.03369,0.0473,0.05908,0.07031,0.0896    c-0.38159,0.47791-0.75861,0.93835-1.12616,1.3739c-0.61597-1.36829-1.98523-2.63586-2.16095-2.79456    c-0.40918-0.37109-1.04102-0.33887-1.41113,0.07031c-0.37109,0.4082-0.33984,1.04102,0.06836,1.41211    c0.59082,0.53613,1.59766,1.66699,1.78613,2.41895c0.04926,0.19751,0.16138,0.35876,0.30121,0.48657    c-0.48798,0.51208-0.93396,0.93359-1.31586,1.22729c-0.12,0.09229-0.25757,0.20105-0.38147,0.297l-1.95349-2.31555    c-0.35645-0.4209-0.98633-0.47754-1.40918-0.12012c-0.42285,0.35645-0.47559,0.9873-0.12012,1.40918l1.90649,2.25977    c-0.61163,0.48303-1.24396,0.98584-1.89301,1.50476l-1.09552-1.56531c-0.31641-0.45312-0.93945-0.5625-1.39258-0.24609    c-0.45215,0.31641-0.5625,0.94043-0.24609,1.39258l1.16602,1.66602c0.0014,0.00195,0.00385,0.00256,0.00525,0.00464    c-0.38269,0.30725-0.76587,0.61487-1.14685,0.92114c-0.19391,0.15576-0.38116,0.30603-0.57233,0.45959l-1.48041-2.11487    c-0.31641-0.45312-0.94238-0.56152-1.39258-0.24609c-0.45312,0.31641-0.5625,0.94043-0.24609,1.39258l1.55573,2.22241    c-0.69238,0.5542-1.33392,1.0647-1.91626,1.52332l-1.76447-1.84338c-0.38184-0.39941-1.0166-0.41211-1.41406-0.03125    c-0.39941,0.38184-0.41309,1.01562-0.03125,1.41406l1.53754,1.60632c-0.71423,0.39832-1.51904,0.75183-2.38586,1.06958    l-1.24835-1.98352c-0.29395-0.46777-0.91113-0.60645-1.37891-0.31445c-0.46777,0.29492-0.6084,0.91211-0.31445,1.37891    l0.97833,1.55444c-0.638,0.18164-1.29553,0.34863-1.96527,0.50366l-1.26697-2.60986    c-0.24023-0.49609-0.83887-0.70312-1.33594-0.46289c-0.49707,0.24121-0.7041,0.83887-0.46289,1.33594l1.05035,2.16382    c-0.66681,0.12976-1.336,0.25049-2.00214,0.36377l-0.35388-1.23853c-0.15234-0.53223-0.70801-0.83105-1.23633-0.6875    c-0.53125,0.15234-0.83887,0.70605-0.6875,1.23633L23.4234,57.146c-4.22571,0.80371-6.99139,2.62378-8.66272,5.80994    c-0.10651,0.1239-0.18634,0.26794-0.22144,0.4375c-0.54102,1.13818-0.95892,2.43469-1.26093,3.91418    c-1.3916,6.81934,6.47168,10.5752,6.8916,10.7666c0.33301,0.11914,8.2334,2.93359,14.33789,2.93359    c5.65625,0,16.61523,0.24219,20.91211,0.62109c0.90039,0.0791,2.1416,0.06445,3.57812,0.0498    c5.52539-0.07031,14.76172-0.16602,20.33691,4.90234c0.19141,0.17383,0.43262,0.25977,0.67285,0.25977    c0.27148,0,0.54297-0.11035,0.74023-0.32715c0.37109-0.40918,0.34082-1.04102-0.06738-1.41309    C74.52344,79.50391,64.79297,79.6123,58.97559,79.67871z M31.35498,57.58948c0.45264,0.41333,3.22504,3.1991,1.99347,7.95508    c-0.95013-0.04773-1.91394-0.11121-2.86993-0.17444c-0.13007-0.00867-0.25531-0.01636-0.38452-0.0249    c0.20782-3.09888-1.03931-5.76807-1.77356-7.04321C29.36176,58.09192,30.37238,57.85205,31.35498,57.58948z M24.41504,58.99512    c0.59924-0.09521,1.19849-0.19568,1.79559-0.29956c0.13098,0.1864,2.1239,3.08936,1.88898,6.52856    c-1.0451-0.05725-2.05109-0.09241-3.01172-0.09204C25.03796,62.40039,23.2691,60.56445,21.94,59.573    C22.69452,59.33276,23.51318,59.13867,24.41504,58.99512z M19.74121,60.53503c0.4939,0.25964,3.32098,1.87903,3.3493,4.68909    c-0.80237,0.09216-1.49561,0.25415-2.07617,0.48621c-1.02167-1.55347-2.69287-2.35754-3.90466-2.75317    C17.80554,61.9563,18.67517,61.15967,19.74121,60.53503z M15.53345,70.91309c-0.37524-0.95972-0.53632-2.02783-0.29614-3.20508    c0.22534-1.104,0.52295-2.08105,0.89417-2.95435c0.92511,0.25879,2.466,0.85864,3.25665,2.11353    c-0.01135,0.01501-0.02649,0.02783-0.03754,0.04297c-0.25775,0.35522-0.38672,0.70837-0.44971,1.02478    C17.22504,68.40381,16.15546,69.6582,15.53345,70.91309z M19.74902,72.6582c-0.41742,0.86377-0.51141,1.77661-0.48096,2.57178    c-0.7522-0.52075-1.63324-1.23999-2.39545-2.13208c0.15192-0.70264,0.77673-2.8573,2.74237-3.28247    c0.33582,0.25415,0.8996,0.66235,1.62665,1.14075C20.59827,71.40222,20.08618,71.96033,19.74902,72.6582z M24.24634,77.25708    c-1.24872-0.35266-2.23456-0.66797-2.79437-0.85413c-0.14526-0.53479-0.40826-1.82678,0.09784-2.87463    c0.30615-0.63281,0.8576-1.07629,1.66949-1.36353c0.52423,0.2959,1.09241,0.59436,1.68903,0.8855    C24.57495,73.99463,24.08319,75.71069,24.24634,77.25708z M26.43335,77.83411c-0.01105-0.0304-0.00897-0.06213-0.02319-0.09192    c-0.43298-0.90308-0.08612-2.62805,0.33478-3.87695c0.72345,0.29126,1.47601,0.5542,2.25116,0.7782    c-0.20703,0.89807-0.23761,2.2179,0.52844,3.84924C28.45703,78.30042,27.41064,78.07324,26.43335,77.83411z"/><path fill="#000000" d="M47.2373,69.14453c0.23926,0.29004,0.62012,0.4209,0.98438,0.33984    c0.08789-0.01758,8.70605-1.86133,12.53906,1.18164c0.18457,0.14551,0.40332,0.2168,0.62109,0.2168    c0.29492,0,0.58691-0.12988,0.78418-0.37793c0.34375-0.43262,0.27148-1.06152-0.16113-1.40527    c-3.55859-2.82617-9.95117-2.25488-12.79395-1.82227c0.02051-0.5,0.00488-1.125-0.08496-1.88672    c-0.1123-0.95117,1.86523-3.35352,3.7832-4.99902c0.41895-0.35938,0.4668-0.99023,0.10742-1.41016    c-0.35742-0.41797-0.98926-0.46875-1.40918-0.10742c-0.76398,0.65381-4.41461,3.9187-4.47302,6.41248    c-0.53351-0.02039-1.26569-0.07812-1.89124-0.14783c-0.53711-0.0498-1.04297,0.33398-1.10449,0.88379    c-0.06055,0.54883,0.33496,1.04297,0.88379,1.10449c0.4787,0.05347,1.40424,0.1427,2.18298,0.15881    c-0.03198,0.56091-0.11774,0.82849-0.11658,0.82849C46.94141,68.45801,46.99805,68.85645,47.2373,69.14453z"/><path fill="#000000" d="M65.13281,69.50781c0.2627,0,0.52539-0.10254,0.72168-0.30762    c0.38184-0.39844,0.36914-1.03125-0.0293-1.41406c-0.85895-0.82434-1.89594-1.48633-2.96539-2.01929    c0.52356-0.01282,1.09473,0.01929,1.70758,0.13843c0.53906,0.10645,1.06641-0.24805,1.17188-0.79102    c0.10547-0.54199-0.24902-1.06641-0.79102-1.17188c-2.62311-0.51318-4.71643,0.17725-5.52594,0.51172    c-0.63257-0.18188-1.20721-0.32129-1.69208-0.42456c0.20636-0.2843,0.38763-0.59473,0.55145-0.92297    c0.95898-0.15503,3.66547-1.25964,6.53082-8.47961c0.20312-0.51367-0.04785-1.09473-0.56055-1.29883    c-0.51172-0.20215-1.09473,0.04785-1.29883,0.56055c-1.58484,3.99426-3.01526,5.78613-3.92627,6.59216    c0.16785-1.62427-0.13141-3.23303-0.88037-4.11853c-1.54102-1.82129-8.79492-1.46387-11.8418-1.22656    c-0.5498,0.04297-0.96191,0.52441-0.91895,1.07422c0.04297,0.55176,0.53125,0.95703,1.07422,0.91992    c4.76758-0.37109,9.5166-0.12402,10.15918,0.52344c0.48535,0.57422,0.74316,2.50293,0.04199,4.21973    c-0.44629,1.0918-1.43652,2.43555-3.62109,2.63867c-0.5498,0.05176-0.9541,0.53906-0.90332,1.08887    c0.04883,0.51855,0.48438,0.90723,0.99512,0.90723c0.03125,0,0.0625-0.00098,0.09375-0.00391    c0.98193-0.09155,1.8645-0.3689,2.6358-0.80298c0.04938,0.0144,0.09186,0.04224,0.14447,0.04907    c0.05566,0.00684,5.58105,0.73926,8.43457,3.47949C64.63379,69.41504,64.88379,69.50781,65.13281,69.50781z"/><path fill="#000000" d="M66.69922,54.8877c1.21875,2.57617,2.59961,5.49512,4.93359,5.49512    c0.71191,0,1.58594-0.2002,2.59863-0.43066c1.66992-0.38281,3.74902-0.85645,5.20996-0.37109    c0.5293,0.17676,1.08984-0.1084,1.26465-0.63184c0.1748-0.52441-0.1084-1.09082-0.63184-1.26465    c-1.99219-0.66504-4.37402-0.12012-6.28809,0.31738c-0.85742,0.19629-1.66699,0.38086-2.15332,0.38086    c-1.06738,0-2.30566-2.61816-3.125-4.35059l-0.09668-0.20215c-1.08203-2.28516-2.43555-6.5791-2.44922-6.62207    c-0.16602-0.52539-0.72461-0.82031-1.25391-0.6543c-0.52734,0.16602-0.81934,0.72754-0.6543,1.25391    c0.05664,0.18164,1.40918,4.46875,2.55078,6.87793L66.69922,54.8877z"/><path fill="#000000" d="M82.69043,55.04102c-1.19434-0.89648-4.40039-0.60645-5.72363-0.44238    c-0.54785,0.06836-0.93652,0.56836-0.86816,1.11621s0.56543,0.93652,1.11621,0.86816    c1.83301-0.22949,3.87305-0.19922,4.27637,0.05762c0.17969,0.13477,0.38965,0.2002,0.59863,0.2002    c0.30469,0,0.60449-0.1377,0.80078-0.40039C83.22266,55.99902,83.13281,55.37207,82.69043,55.04102z"/><path fill="#000000" d="M71.67188,49.64355c-0.08789-0.11328-0.10352-0.49512-0.11719-0.83301    c-0.04785-1.18164-0.12793-3.16016-3.08789-4.69141c-0.49121-0.25195-1.09473-0.06055-1.34766,0.42969    s-0.06152,1.09375,0.42969,1.34766c1.92676,0.99609,1.96387,1.92285,2.00781,2.99512    c0.02539,0.6377,0.05469,1.36035,0.53711,1.98047c0.57227,0.73633,1.75098,3.45898,2.3584,5.00195    c0.15527,0.39355,0.53223,0.63379,0.93066,0.63379c0.12207,0,0.24609-0.02246,0.36621-0.06934    c0.51465-0.20312,0.7666-0.7832,0.56445-1.29688C74.1416,54.70508,72.6084,50.84766,71.67188,49.64355z"/><circle fill="#000000" cx="71.42422" cy="24.38251" r="1"/><path fill="#000000" d="M66.48828,37.68359c-0.53906-0.10352-1.06348,0.26074-1.16309,0.80371s0.26074,1.06445,0.80371,1.16309    c0.1748,0.03223,0.34863,0.04785,0.51953,0.04785c1.34277,0,2.55859-0.9541,3.12402-2.51074    c0.67969-1.86621,0.15723-3.7373-1.27051-4.54883c-0.48047-0.27344-1.08984-0.10645-1.36328,0.375    c-0.27344,0.47949-0.10547,1.08984,0.375,1.36328c0.62695,0.35742,0.66602,1.34082,0.37988,2.12695    C67.66699,37.125,67.16211,37.79883,66.48828,37.68359z"/></g></g><text x="0" y="115" fill="#000000" font-size="5px" font-weight="bold" font-family="'Helvetica Neue', Helvetica, Arial-Unicode, Arial, Sans-serif">Created by Yu luck</text><text x="0" y="120" fill="#000000" font-size="5px" font-weight="bold" font-family="'Helvetica Neue', Helvetica, Arial-Unicode, Arial, Sans-serif">from the Noun Project</text></svg>