<?xml version="1.0" encoding="UTF-8"?><svg xmlns="http://www.w3.org/2000/svg" xmlns:xlink="http://www.w3.org/1999/xlink" version="1.1" id="Layer_1" x="0px" y="0px" viewBox="0 0 32 32" xml:space="preserve"><style type="text/css">.st0{fill:#01A6FF;} .st1{fill:#006EF4;} .st2{fill:#F0C9AE;} .st3{fill:#E2B698;} .st4{fill:#ED5C23;} .st5{fill:#F47321;} .st6{fill:#8A6845;} .st7{fill:#745539;} .st8{fill:#EEF2FA;} .st9{fill:#D5E5F2;} .st10{fill:#91CA60;} .st11{fill:#70BB57;} .st12{fill:#AE89BF;} .st13{fill:#9675B4;} .st14{fill:#8D6DAF;} .st15{fill:#004463;} .st16{fill:#61AF45;} .st17{fill:#607D95;} .st18{fill:#4B6C85;} .st19{fill:#90CFF1;} .st20{fill:#70B7E6;} .st21{fill:#B0C4DA;} .st22{fill:#99B5CE;} .st23{fill:#FECB5B;} .st24{fill:#F8B545;} .st25{fill:#EA9F32;} .st26{fill:#014CB1;} .st27{fill:#40657C;} .st28{fill:#B285BB;} .st29{fill:#9768AB;} .st30{fill:#FFFFFF;} .st31{fill:#EF4A4C;} .st32{fill:none;stroke:#4F5266;stroke-linecap:round;stroke-linejoin:round;stroke-miterlimit:10;} .st33{fill:#4F5266;} .st34{fill:#606060;} .st35{fill:none;stroke:#4F5266;stroke-miterlimit:10;} .st36{fill:#4F5266;stroke:#4F5266;stroke-miterlimit:10;} .st37{fill:#67ACD5;} .st38{fill:none;stroke:#40455A;stroke-linecap:round;stroke-linejoin:round;stroke-miterlimit:10;} .st39{fill:#B58C66;} .st40{fill:#362B5B;} .st41{fill:#FF527B;} .st42{fill:#E4E8EA;} .st43{fill:#AFABB2;} .st44{fill:#66AAD3;} .st45{fill:#5890CC;} .st46{fill:#FFD986;} .st47{fill:#5B5D70;} .st48{fill:none;stroke:#40455A;stroke-miterlimit:10;} .st49{fill:#FFDA87;} .st50{fill:#F7A053;} .st51{fill:#FF9E68;} .st52{fill:#E67144;} .st53{fill:#C06200;} .st54{fill:#E0313F;} .st55{fill:#898B99;} .st56{fill:#D1283D;} .st57{fill:#E55123;} .st58{fill:#516D97;} .st59{fill:#5C5E70;} .st60{fill:#CAA9CF;} .st61{fill:none;stroke:#004463;stroke-linecap:round;stroke-linejoin:round;stroke-miterlimit:10;} .st62{fill:#3C3B41;} .st63{fill:#E9DCEC;} .st64{fill:#C9CEC4;} .st65{fill:#8D5AA3;} .st66{fill:none;stroke:#8D5AA3;stroke-linecap:round;stroke-linejoin:round;stroke-miterlimit:10;} .st67{fill:#FF5345;} .st68{fill:#A3D86B;} .st69{fill:#5791D1;} .st70{fill:#A17852;} .st71{fill:#FED8AA;} .st72{fill:#5A5D70;} .st73{fill:#A95D8A;} .st74{fill:#814F80;} .st75{fill:#DB3A3A;} .st76{fill:#64BC50;} .st77{fill:#FED8AA;stroke:#40455A;stroke-linecap:round;stroke-linejoin:round;stroke-miterlimit:10;} .st78{fill:#EA3F3B;} .st79{fill:#E37A49;} .st80{fill:#C15C49;} .st81{fill:#A17852;stroke:#40455A;stroke-miterlimit:10;} .st82{fill:#A2E2FF;} .st83{fill:#FED8AA;stroke:#40455A;stroke-miterlimit:10;} .st84{fill:#5C5E70;stroke:#40455A;stroke-miterlimit:10;} .st85{fill:#4F5266;stroke:#40455A;stroke-miterlimit:10;} .st86{fill:#787882;stroke:#40455A;stroke-miterlimit:10;} .st87{fill:#40455A;} .st88{fill:#E67401;} .st89{fill:#2A292E;} .st90{fill:#17161B;} .st91{fill:#00459D;}</style><path class="st0" d="M16.6 17.3l-4.7 1.6C10.2 19.4 9 21 9 22.8v3.7h21v-3.7c0-1.8-1.2-3.4-2.9-4l-4.7-1.6" fill="#01A6FF"/><path class="st1" d="M20.5 26.5c.8 0 1.5-.7 1.5-1.5v-2c0-.6-.4-.9-1-.9s-1-.4-1-1v-3.9h-3.4l-4.7 1.6c-1.7.6-2.9 2.2-2.9 4v3.7h11.5z" fill="#006EF4"/><path class="st2" d="M16.5 14.8v2.1c0 1.6 2.9 2.9 2.9 2.9s2.9-1.3 2.9-2.9v-2.1" fill="#F0C9AE"/><path class="st3" d="M19.5 14.8h-3v2.1c0 1.6 2.9 2.9 2.9 2.9v-5z" fill="#E2B698"/><path class="st1" d="M30 26.5v-3.7c0-.8-.2-1.5-.6-2.2-2.5.3-4.4 2.4-4.4 5v.8h5z" fill="#006EF4"/><path class="st6" d="M30.5 26.5h-28c-.8 0-1.5.7-1.5 1.5s.7 1.5 1.5 1.5h28c.8 0 1.5-.7 1.5-1.5s-.7-1.5-1.5-1.5z" fill="#8A6845"/><path class="st6" fill="#8A6845" d="M30 31.5v-2H3v2"/><path class="st17" d="M14 9v1.5h-1c-.6 0-1-.4-1-1v-1c0-.6.4-1 1-1h.5" fill="#607D95"/><path class="st17" d="M25 9v1.5h1c.6 0 1-.4 1-1v-1c0-.6-.4-1-1-1h-.5" fill="#607D95"/><path class="st6" d="M24.7 8.3h.3l1-2.8c.3-1.3-.7-2.5-2-2.5C24 1.5 22.6.3 21.1.6l-6 1c-1.4.2-2.3 1.6-2.1 2.9l1 3.8h.3" fill="#8A6845"/><path class="st2" d="M24.6 8.3c-.5 0-.9-.4-.9-.9V5.7c0-.4-.4-.6-.7-.3-1.7 1.3-4 1.8-6.1 1.4l-.9-.2c-.5 0-.9.4-.9.9s-.4.9-.9.9H14V10c0 3 2.5 5.5 5.5 5.5S25 13 25 10V8.3h-.4z" fill="#F0C9AE"/><path class="st7" d="M16.6 1.5l5.6-.9c-.3-.1-.7-.1-1.1-.1l-6 1c-1.4.2-2.3 1.6-2.1 2.9l1 3.8h1.5l-1-3.8c-.2-1.3.7-2.6 2.1-2.9z" fill="#745539"/><path class="st3" d="M23.8 5.5c0-.4-.4-.6-.7-.3C21.4 6.5 19.2 7 17 6.6l-.9-.2c-.2 0-.3.1-.4.1l-.3.1v.2c-.1.1-.1.3-.1.4 0 .5-.4.9-.9.9H14V10c0 3.1 2.5 5.5 5.5 5.5v.2c.3 0 .6-.3.9-.3-2.7-.4-4.7-2.7-4.7-5.5v-.4c0-.7.6-1.3 1.3-1.2 2.1.4 4.3-.1 6.1-1.4.3-.2.7 0 .7.3V5.5z" fill="#E2B698"/><path class="st15" d="M30.5 30h-28c-1.1 0-2-.9-2-2s.9-2 2-2h28c1.1 0 2 .9 2 2s-.9 2-2 2zm-28-3c-.6 0-1 .4-1 1s.4 1 1 1h28c.6 0 1-.4 1-1s-.4-1-1-1h-28z" fill="#004463"/><path class="st15" d="M30 32c-.3 0-.5-.2-.5-.5V30h-26v1.5c0 .3-.2.5-.5.5s-.5-.2-.5-.5v-2c0-.3.2-.5.5-.5h27c.3 0 .5.2.5.5v2c0 .3-.2.5-.5.5z" fill="#004463"/><path class="st15" d="M25 8.8h-.3c-.3 0-.5-.2-.5-.5s.2-.5.4-.5l.8-2.4c.1-.4 0-.9-.3-1.2-.3-.4-.7-.6-1.2-.6-.3 0-.5-.2-.5-.5 0-.6-.3-1.2-.7-1.6-.4-.4-1-.5-1.6-.4l-6 1c-.5.1-1 .4-1.3.8-.3.4-.4 1-.3 1.5l.9 3.4c.2 0 .4.2.4.5s-.2.5-.5.5H14c-.2 0-.4-.2-.5-.4l-1-3.8c-.2-.8 0-1.6.5-2.3.5-.7 1.2-1.1 2-1.2l6-1c.9-.1 1.7.1 2.4.7.6.5.9 1.2 1 1.9.6 0 1.2.3 1.5.8.5.6.7 1.4.5 2.1l-1 2.8c0 .3-.2.4-.4.4z" fill="#004463"/><path class="st15" d="M24.9 8.8h-.3c-.7 0-1.4-.6-1.4-1.4V5.9c-1.8 1.3-4.2 1.8-6.4 1.4l-.8-.2c-.1 0-.3.2-.3.4 0 .7-.6 1.4-1.4 1.4H14c-.3 0-.5-.2-.5-.5s.2-.5.5-.5h.3c.2 0 .4-.2.4-.4 0-.7.6-1.4 1.4-1.4l1 .2c2 .4 4.1-.1 5.7-1.3.3-.2.7-.2 1-.1s.5.5.5.8v1.7c0 .2.2.4.4.4h.3c.3 0 .5.2.5.5s-.3.5-.6.5z" fill="#004463"/><path class="st15" d="M30 27H9c-.3 0-.5-.2-.5-.5s.2-.5.5-.5h20.5v-3.2c0-1.6-1-3-2.5-3.5l-4.7-1.6c-.3-.1-.4-.4-.3-.6.1-.3.4-.4.6-.3l4.7 1.6c1.9.6 3.2 2.4 3.2 4.5v3.7c0 .2-.2.4-.5.4z" fill="#004463"/><path class="st15" d="M30 27h-5c-.3 0-.5-.2-.5-.5v-.8c0-2.8 2.1-5.2 4.9-5.5.2 0 .4.1.5.2.4.7.7 1.6.7 2.4v3.7c-.1.3-.3.5-.6.5zm-4.5-1h4v-3.2c0-.5-.1-1.1-.4-1.6-2.1.4-3.7 2.3-3.7 4.5v.3z" fill="#004463"/><path class="st15" d="M24.5 13.6H21c-.3 0-.5-.2-.5-.5s.2-.5.5-.5h3.5c1.1 0 2-.9 2-2V8.9c0-.3.2-.5.5-.5s.5.2.5.5v1.7c0 1.6-1.4 3-3 3z" fill="#004463"/><path class="st15" d="M14 11h-1c-.8 0-1.5-.7-1.5-1.5v-1c0-.8.7-1.5 1.5-1.5h.5c.3 0 .5.2.5.5s-.2.5-.5.5H13c-.3 0-.5.2-.5.5v1c0 .3.2.5.5.5h.5V9c0-.3.2-.5.5-.5s.5.2.5.5v1.5c0 .3-.2.5-.5.5z" fill="#004463"/><path class="st15" d="M26 11h-1c-.3 0-.5-.2-.5-.5V9c0-.3.2-.5.5-.5s.5.2.5.5v1h.5c.3 0 .5-.2.5-.5v-1c0-.3-.2-.5-.5-.5h-.5c-.3 0-.5-.2-.5-.5s.2-.5.5-.5h.5c.8 0 1.5.7 1.5 1.5v1c0 .8-.7 1.5-1.5 1.5z" fill="#004463"/><path class="st18" d="M20 23.5H3V25c0 .8.7 1.5 1.5 1.5h14c.8 0 1.5-.7 1.5-1.5v-1.5z" fill="#4B6C85"/><path class="st27" d="M5 23.5H3V25c0 .8.7 1.5 1.5 1.5h14c.8 0 1.5-.7 1.5-1.5H6.5c-.8 0-1.5-.7-1.5-1.5z" fill="#40657C"/><path class="st15" d="M18.5 27h-14c-1.1 0-2-.9-2-2v-1.5c0-.3.2-.5.5-.5h17c.3 0 .5.2.5.5V25c0 1.1-.9 2-2 2zm-15-3v1c0 .6.4 1 1 1h14c.6 0 1-.4 1-1v-1h-16z" fill="#004463"/><path class="st17" fill="#607D95" d="M3 13.5h15v10H3z"/><path class="st18" d="M5 18.5v-5H3v10h15v-2H8c-1.7 0-3-1.3-3-3z" fill="#4B6C85"/><path class="st15" d="M18 24H3c-.3 0-.5-.2-.5-.5v-10c0-.3.2-.5.5-.5h15c.3 0 .5.2.5.5v10c0 .3-.2.5-.5.5zM3.5 23h14v-9h-14v9z" fill="#004463"/><path class="st15" d="M19.5 20.3h-.2s-.8-.4-1.6-.9c-.2-.2-.3-.5-.1-.7s.5-.3.7-.1c.5.3.9.6 1.2.7.8-.4 2.4-1.4 2.4-2.4v-2.1c0-.3.2-.5.5-.5s.5.2.5.5v2.1c0 1.9-2.9 3.2-3.2 3.4h-.2z" fill="#004463"/><path class="st15" d="M19.5 16c-.5 0-1.1-.1-1.6-.2-.2-.1-.4-.3-.4-.5V14h-2.2c-.1 0-.3-.1-.4-.2-.9-1.1-1.4-2.4-1.4-3.8V8.5c0-.3.2-.5.5-.5s.5.2.5.5V10c0 1.1.4 2.2 1 3H18c.3 0 .5.2.5.5v1.4c.3.1.7.1 1 .1 2.8 0 5-2.2 5-5V8.5c0-.3.2-.5.5-.5s.5.2.5.5V10c0 3.3-2.7 6-6 6z" fill="#004463"/><circle class="st15" cx="10.5" cy="18.5" r="1" fill="#004463"/><metadata><rdf:RDF xmlns:rdf="http://www.w3.org/1999/02/22-rdf-syntax-ns#" xmlns:rdfs="http://www.w3.org/2000/01/rdf-schema#" xmlns:dc="http://purl.org/dc/elements/1.1/"><rdf:Description about="https://iconscout.com/legal#licenses" dc:title="customer,care,representative,support,help,laptop,feedback,service" dc:description="customer,care,representative,support,help,laptop,feedback,service" dc:publisher="Iconscout" dc:date="2017-09-07" dc:format="image/svg+xml" dc:language="en"><dc:creator><rdf:Bag><rdf:li>Jemis Mali</rdf:li></rdf:Bag></dc:creator></rdf:Description></rdf:RDF></metadata></svg>