<?xml version="1.0" encoding="utf-8"?>
<svg xmlns="http://www.w3.org/2000/svg" xmlns:xlink="http://www.w3.org/1999/xlink" version="1.1" id="Layer_1" x="0px" y="0px" viewBox="0 0 48 48" style="enable-background:new 0 0 48 48;" xml:space="preserve">
<style type="text/css">
	.st0{fill:#BD4243;}
	.st1{fill:#010101;}
	.st2{fill:#FEC367;}
	.st3{fill:none;}
	.st4{fill:#38A378;}
	.st5{fill:#58BF97;}
	.st6{fill:#E7F0F3;}
	.st7{fill:#1F9ED6;}
	.st8{fill:#D8E5EA;}
	.st9{fill:#4B7DA3;}
	.st10{fill:none;stroke:#010101;stroke-width:2;stroke-linecap:round;stroke-linejoin:round;stroke-miterlimit:10;}
	.st11{fill:#060707;}
	.st12{fill:#A15B4C;}
	.st13{fill:#58BF97;stroke:#010101;stroke-width:2;stroke-miterlimit:10;}
	.st14{fill:#3FBA8B;stroke:#010101;stroke-width:2;stroke-miterlimit:10;}
	.st15{fill:#1F9ED6;stroke:#010101;stroke-width:2;stroke-miterlimit:10;}
	.st16{fill:#347ABE;stroke:#010101;stroke-width:2;stroke-miterlimit:10;}
	.st17{fill:#E7F0F3;stroke:#010101;stroke-width:2;stroke-miterlimit:10;}
	.st18{fill:#D8E5EA;stroke:#010101;stroke-width:2;stroke-miterlimit:10;}
	.st19{fill:#EA5F6E;stroke:#010101;stroke-width:2;stroke-miterlimit:10;}
	.st20{fill:#D34A5F;stroke:#010101;stroke-width:2;stroke-miterlimit:10;}
	.st21{fill:#FAB633;stroke:#010101;stroke-width:2;stroke-miterlimit:10;}
	.st22{fill:#F89938;stroke:#010101;stroke-width:2;stroke-miterlimit:10;}
	.st23{fill:#FEC367;stroke:#010101;stroke-width:2;stroke-miterlimit:10;}
	.st24{fill:#F8AC4E;stroke:#010101;stroke-width:2;stroke-miterlimit:10;}
	.st25{fill:#5B8FAF;stroke:#010101;stroke-width:2;stroke-miterlimit:10;}
	.st26{fill:#4B7DA3;stroke:#010101;stroke-width:2;stroke-miterlimit:10;}
	.st27{fill:#F8AC4E;}
	.st28{fill:#308C66;}
	.st29{fill:#3F6A84;}
	.st30{fill:#5B8FAF;}
</style>
<path class="st5" d="M5,18v-3c0-1.1,0.9-2,2-2h38c1.1,0,2,0.9,2,2v18c0,1.1-0.9,2-2,2H10" style="fill: #58BF97;"/>
<path class="st4" d="M18,31l22,0c0-1.7,1.3-3,3-3l0-8c-1.7,0-3-1.3-3-3l-28,0" style="fill: #38A378;"/>
<circle class="st5" cx="26" cy="24" r="3.5" style="fill: #58BF97;"/>
<circle class="st2" cx="10" cy="26" r="9" style="fill: #FEC367;"/>
<g>
	<path class="st1" d="M45,12H7c-1.7,0-3,1.3-3,3v3h0c-2.4,1.8-4,4.7-4,8c0,5.5,4.5,10,10,10h35c1.7,0,3-1.3,3-3V15   C48,13.3,46.7,12,45,12z M2,26c0-4.4,3.6-8,8-8s8,3.6,8,8s-3.6,8-8,8S2,30.4,2,26z M16,18l23.1,0c0.4,1.4,1.5,2.5,2.9,2.9l0,6.2   c-1.4,0.4-2.5,1.5-2.9,2.9l-19.9,0c0.5-1.2,0.8-2.6,0.8-4C20,22.7,18.4,19.8,16,18z M46,33c0,0.6-0.4,1-1,1H16c0.8-0.6,1.5-1.3,2-2   l22,0c0,0,0,0,0,0c0.3,0,0.5-0.1,0.7-0.3c0.2-0.2,0.3-0.4,0.3-0.7c0-1.1,0.9-2,2-2c0.6,0,1-0.4,1-1l0-8c0-0.3-0.1-0.5-0.3-0.7   C43.5,19.1,43.3,19,43,19c-1.1,0-2-0.9-2-2c0-0.6-0.4-1-1-1l-28,0h0c-0.2,0-0.3,0.1-0.5,0.1C11,16.1,10.5,16,10,16   c-1.4,0-2.8,0.3-4,0.8V15c0-0.6,0.4-1,1-1h38c0.6,0,1,0.4,1,1V33z" style="fill: #010101;"/>
	<path class="st1" d="M26,28.5c2.5,0,4.5-2,4.5-4.5s-2-4.5-4.5-4.5s-4.5,2-4.5,4.5S23.5,28.5,26,28.5z M26,21.5   c1.4,0,2.5,1.1,2.5,2.5s-1.1,2.5-2.5,2.5s-2.5-1.1-2.5-2.5S24.6,21.5,26,21.5z" style="fill: #010101;"/>
	<circle class="st1" cx="38" cy="24" r="2" style="fill: #010101;"/>
	<path class="st1" d="M10,23C10,23,10,23,10,23C10,23,10,23,10,23C10,23,10,23,10,23c0.6,0,1,0.5,1,1c0,0.6,0.4,1,1,1s1-0.4,1-1   c0-1.3-0.8-2.4-2-2.8l0-0.2c0-0.6-0.4-1-1-1c0,0,0,0,0,0c-0.6,0-1,0.4-1,1l0,0.2c-1.2,0.4-2,1.5-2,2.8c0,1.7,1.3,3,3,3c0,0,0,0,0,0   c0.5,0,1,0.5,1,1c0,0.5-0.4,1-1,1c0,0,0,0,0,0c0,0,0,0,0,0c0,0,0,0,0,0c-0.5,0-1-0.5-1-1c0-0.6-0.4-1-1-1s-1,0.4-1,1   c0,1.3,0.8,2.4,2,2.8L9,31c0,0.6,0.4,1,1,1c0,0,0,0,0,0c0.6,0,1-0.4,1-1l0-0.2c1.2-0.4,2-1.5,2-2.8c0-1.7-1.3-3-3-3c0,0,0,0,0,0   c-0.5,0-1-0.5-1-1C9,23.5,9.4,23,10,23z" style="fill: #010101;"/>
</g>

	<metadata>
		<rdf:RDF xmlns:rdf="http://www.w3.org/1999/02/22-rdf-syntax-ns#" xmlns:rdfs="http://www.w3.org/2000/01/rdf-schema#" xmlns:dc="http://purl.org/dc/elements/1.1/">
			<rdf:Description about="https://iconscout.com/legal#licenses" dc:title="3 note coin currency money payment Transaction bank transfer activity" dc:description="3 note coin currency money payment Transaction bank transfer activity" dc:publisher="Iconscout" dc:date="2017-03-06" dc:format="image/svg+xml" dc:language="en">
				<dc:creator>
					<rdf:Bag>
						<rdf:li>Jemis Mali</rdf:li>
					</rdf:Bag>
				</dc:creator>
			</rdf:Description>
		</rdf:RDF>
    </metadata></svg>
