<?xml version="1.0" encoding="UTF-8"?><svg xmlns="http://www.w3.org/2000/svg" xmlns:xlink="http://www.w3.org/1999/xlink" version="1.1" id="Layer_1" x="0px" y="0px" viewBox="0 0 32 32" xml:space="preserve"><style type="text/css">.st0{fill:#01A6FF;} .st1{fill:#006EF4;} .st2{fill:#F0C9AE;} .st3{fill:#E2B698;} .st4{fill:#ED5C23;} .st5{fill:#F47321;} .st6{fill:#8A6845;} .st7{fill:#745539;} .st8{fill:#EEF2FA;} .st9{fill:#D5E5F2;} .st10{fill:#91CA60;} .st11{fill:#70BB57;} .st12{fill:#AE89BF;} .st13{fill:#9675B4;} .st14{fill:#8D6DAF;} .st15{fill:#004463;} .st16{fill:#61AF45;} .st17{fill:#607D95;} .st18{fill:#4B6C85;} .st19{fill:#90CFF1;} .st20{fill:#70B7E6;} .st21{fill:#B0C4DA;} .st22{fill:#99B5CE;} .st23{fill:#FECB5B;} .st24{fill:#F8B545;} .st25{fill:#EA9F32;} .st26{fill:#014CB1;} .st27{fill:#40657C;} .st28{fill:#B285BB;} .st29{fill:#9768AB;} .st30{fill:#FFFFFF;} .st31{fill:#EF4A4C;} .st32{fill:none;stroke:#4F5266;stroke-linecap:round;stroke-linejoin:round;stroke-miterlimit:10;} .st33{fill:#4F5266;} .st34{fill:#606060;} .st35{fill:none;stroke:#4F5266;stroke-miterlimit:10;} .st36{fill:#4F5266;stroke:#4F5266;stroke-miterlimit:10;} .st37{fill:#67ACD5;} .st38{fill:none;stroke:#40455A;stroke-linecap:round;stroke-linejoin:round;stroke-miterlimit:10;} .st39{fill:#B58C66;} .st40{fill:#362B5B;} .st41{fill:#FF527B;} .st42{fill:#E4E8EA;} .st43{fill:#AFABB2;} .st44{fill:#66AAD3;} .st45{fill:#5890CC;} .st46{fill:#FFD986;} .st47{fill:#5B5D70;} .st48{fill:none;stroke:#40455A;stroke-miterlimit:10;} .st49{fill:#FFDA87;} .st50{fill:#F7A053;} .st51{fill:#FF9E68;} .st52{fill:#E67144;} .st53{fill:#C06200;} .st54{fill:#E0313F;} .st55{fill:#898B99;} .st56{fill:#D1283D;} .st57{fill:#E55123;} .st58{fill:#516D97;} .st59{fill:#5C5E70;} .st60{fill:#CAA9CF;} .st61{fill:none;stroke:#004463;stroke-linecap:round;stroke-linejoin:round;stroke-miterlimit:10;} .st62{fill:#3C3B41;} .st63{fill:#E9DCEC;} .st64{fill:#C9CEC4;} .st65{fill:#8D5AA3;} .st66{fill:none;stroke:#8D5AA3;stroke-linecap:round;stroke-linejoin:round;stroke-miterlimit:10;} .st67{fill:#FF5345;} .st68{fill:#A3D86B;} .st69{fill:#5791D1;} .st70{fill:#A17852;} .st71{fill:#FED8AA;} .st72{fill:#5A5D70;} .st73{fill:#A95D8A;} .st74{fill:#814F80;} .st75{fill:#DB3A3A;} .st76{fill:#64BC50;} .st77{fill:#FED8AA;stroke:#40455A;stroke-linecap:round;stroke-linejoin:round;stroke-miterlimit:10;} .st78{fill:#EA3F3B;} .st79{fill:#E37A49;} .st80{fill:#C15C49;} .st81{fill:#A17852;stroke:#40455A;stroke-miterlimit:10;} .st82{fill:#A2E2FF;} .st83{fill:#FED8AA;stroke:#40455A;stroke-miterlimit:10;} .st84{fill:#5C5E70;stroke:#40455A;stroke-miterlimit:10;} .st85{fill:#4F5266;stroke:#40455A;stroke-miterlimit:10;} .st86{fill:#787882;stroke:#40455A;stroke-miterlimit:10;} .st87{fill:#40455A;} .st88{fill:#E67401;} .st89{fill:#2A292E;} .st90{fill:#17161B;} .st91{fill:#00459D;}</style><path class="st8" d="M2 16c0 7.5 6 13.5 13.5 13.5S29 23.5 29 16 23 2.5 15.5 2.5 2 8.5 2 16zm21 0c0 4.1-3.4 7.5-7.5 7.5S8 20.1 8 16s3.4-7.5 7.5-7.5S23 11.9 23 16z" fill="#EEF2FA"/><path class="st9" d="M16.5 23.4c.3 0 .7.1 1 .1 4.1 0 7.5-3.4 7.5-7.5s-3.4-7.5-7.5-7.5c-.3 0-.7 0-1 .1 3.7.5 6.5 3.6 6.5 7.4s-2.8 6.9-6.5 7.4z" fill="#D5E5F2"/><path class="st9" d="M4 16C4 8.9 9.5 3.1 16.5 2.6c-.3 0-.7-.1-1-.1C8 2.5 2 8.5 2 16s6 13.5 13.5 13.5c.3 0 .7 0 1-.1C9.5 28.9 4 23.1 4 16z" fill="#D5E5F2"/><path class="st31" d="M15.5 23.5c-1 0-1.9-.2-2.8-.6l-1.3 5.9c1.3.4 2.7.7 4.1.7s2.8-.2 4.1-.7l-1.3-5.9c-.9.4-1.8.6-2.8.6z" fill="#EF4A4C"/><path class="st31" d="M28.3 11.9l-5.9 1.3c.4.9.6 1.8.6 2.8s-.2 1.9-.6 2.8l5.9 1.3c.4-1.3.7-2.7.7-4.1s-.2-2.8-.7-4.1z" fill="#EF4A4C"/><path class="st31" d="M15.5 8.5c1 0 1.9.2 2.8.6l1.3-5.9c-1.3-.4-2.7-.7-4.1-.7s-2.8.2-4.1.7l1.3 5.9c.9-.4 1.8-.6 2.8-.6z" fill="#EF4A4C"/><path class="st31" d="M8 16c0-1 .2-1.9.6-2.8l-5.9-1.3C2.2 13.2 2 14.6 2 16s.2 2.8.7 4.1l5.9-1.3C8.2 17.9 8 17 8 16z" fill="#EF4A4C"/><path class="st54" d="M6.6 17.7c-1.1.2-2.2-.5-2.4-1.6-.1-.7-.2-1.4-.2-2.1 0-.6.1-1.2.1-1.8l-1.5-.3C2.2 13.2 2 14.6 2 16s.2 2.8.7 4.1l5.9-1.3c-.2-.5-.3-1-.4-1.5l-1.6.4z" fill="#E0313F"/><path class="st54" d="M13.8 7.1c-.2-1.1.5-2.2 1.6-2.4.7-.1 1.4-.2 2.1-.2.6 0 1.2.1 1.8.1l.3-1.5c-1.3-.4-2.7-.7-4.1-.7s-2.8.2-4.1.7L12.7 9c.5-.2 1-.3 1.5-.4l-.4-1.5z" fill="#E0313F"/><path class="st54" d="M24.4 14.3c1.1-.2 2.2.5 2.4 1.6.1.7.2 1.4.2 2.1 0 .6-.1 1.2-.1 1.8l1.5.3c.4-1.3.7-2.7.7-4.1s-.2-2.8-.7-4.1l-5.9 1.3c.2.5.3 1 .4 1.5l1.5-.4z" fill="#E0313F"/><path class="st54" d="M17.2 24.9c.2 1.1-.5 2.2-1.6 2.4-.7.1-1.4.2-2.1.2-.6 0-1.2-.1-1.8-.1l-.3 1.5c1.3.4 2.7.7 4.1.7s2.8-.2 4.1-.7L18.3 23c-.5.2-1 .3-1.5.4l.4 1.5z" fill="#E0313F"/><path class="st15" d="M15.5 30c-7.7 0-14-6.3-14-14s6.3-14 14-14 14 6.3 14 14-6.3 14-14 14zm0-27c-7.2 0-13 5.8-13 13s5.8 13 13 13 13-5.8 13-13-5.8-13-13-13z" fill="#004463"/><path class="st15" d="M15.5 24c-4.4 0-8-3.6-8-8s3.6-8 8-8 8 3.6 8 8-3.6 8-8 8zm0-15c-3.9 0-7 3.1-7 7s3.1 7 7 7 7-3.1 7-7-3.1-7-7-7z" fill="#004463"/><path class="st15" d="M22.5 30.5H22l-6.5-.5-6.4.4c-2.2.2-4.3-.6-5.8-2.2-1.5-1.5-2.3-3.7-2.2-5.8l.4-6.4-.4-6.4c-.2-2.2.6-4.3 2.1-5.9C4.7 2.2 6.9 1.4 9 1.5l6.5.5 6.4-.4c2.2-.1 4.3.6 5.8 2.2 1.5 1.5 2.3 3.7 2.2 5.8l-.4 6.4.4 6.4c.1 2.2-.6 4.3-2.2 5.8-1.3 1.5-3.3 2.3-5.2 2.3zm-.5-1.1c1.9.1 3.7-.6 5-1.9 1.3-1.3 2-3.2 1.9-5l-.4-6.5.4-6.6c.1-1.9-.6-3.7-1.9-5-1.3-1.3-3.2-2-5-1.9l-6.5.5L9 2.6c-1.9-.1-3.7.6-5 1.9-1.3 1.3-2 3.2-1.9 5l.4 6.5-.4 6.6c-.1 1.9.6 3.7 1.9 5 1.3 1.3 3.2 2 5 1.9l6.5-.4 6.5.3z" fill="#004463"/><path class="st15" d="M2.6 20.6c-.2 0-.4-.1-.5-.3-.4-1.4-.7-2.8-.7-4.3s.2-2.9.7-4.3c.1-.2.3-.4.6-.3l5.9 1.3c.1 0 .3.1.3.3s.1.3 0 .4c-.3.8-.5 1.7-.5 2.6s.2 1.8.5 2.6c.1.1 0 .3 0 .4s-.2.2-.3.3l-5.9 1.3h-.1zm.4-8.1c-.3 1.2-.5 2.3-.5 3.5s.2 2.4.5 3.5l4.9-1.1c-.3-.8-.4-1.6-.4-2.5s.1-1.7.4-2.5L3 12.5z" fill="#004463"/><path class="st15" d="M15.5 30c-1.5 0-2.9-.2-4.3-.7-.2-.1-.4-.3-.3-.6l1.3-5.9c0-.1.1-.3.3-.3.1-.1.3-.1.4 0 1.7.7 3.6.7 5.3 0 .1-.1.3 0 .4 0l.3.3 1.3 5.9c.1.3-.1.5-.3.6-1.5.5-2.9.7-4.4.7zM12 28.5c2.3.7 4.8.7 7.1 0L18 23.6c-1.6.5-3.3.5-4.9 0L12 28.5z" fill="#004463"/><path class="st15" d="M28.4 20.6h-.1l-5.9-1.3c-.1 0-.3-.1-.3-.3s-.1-.3 0-.4c.3-.8.5-1.7.5-2.6s-.2-1.8-.5-2.6c-.1-.1 0-.3 0-.4s.2-.2.3-.3l5.9-1.3c.2-.1.5.1.6.3.4 1.4.7 2.8.7 4.3s-.2 2.9-.7 4.3c-.1.2-.3.3-.5.3zm-5.3-2.1l4.9 1.1c.3-1.2.5-2.3.5-3.5s-.2-2.4-.5-3.5l-4.9 1.1c.3.8.4 1.6.4 2.5s-.1 1.5-.4 2.3z" fill="#004463"/><path class="st15" d="M12.7 9.6c-.1 0-.2 0-.2-.1l-.3-.3-1.3-5.9c-.1-.3.1-.5.3-.6 2.8-.9 5.8-.9 8.6 0 .2.1.4.3.3.6l-1.3 5.9c0 .1-.1.3-.3.3-.1.1-.3.1-.4 0-1.7-.7-3.6-.7-5.3 0l-.1.1zM12 3.5l1 4.9c1.6-.5 3.3-.5 4.9 0L19 3.5c-2.3-.7-4.7-.7-7 0z" fill="#004463"/><metadata><rdf:RDF xmlns:rdf="http://www.w3.org/1999/02/22-rdf-syntax-ns#" xmlns:rdfs="http://www.w3.org/2000/01/rdf-schema#" xmlns:dc="http://purl.org/dc/elements/1.1/"><rdf:Description about="https://iconscout.com/legal#licenses" dc:title="help,support,lifebuoy,tube,life,saver" dc:description="help,support,lifebuoy,tube,life,saver" dc:publisher="Iconscout" dc:date="2017-09-07" dc:format="image/svg+xml" dc:language="en"><dc:creator><rdf:Bag><rdf:li>Jemis Mali</rdf:li></rdf:Bag></dc:creator></rdf:Description></rdf:RDF></metadata></svg>