<?xml version="1.0" encoding="UTF-8"?><svg xmlns="http://www.w3.org/2000/svg" xmlns:xlink="http://www.w3.org/1999/xlink" version="1.1" id="Layer_1" x="0px" y="0px" viewBox="0 0 32 32" xml:space="preserve"><style type="text/css">.st0{fill:#01A6FF;} .st1{fill:#006EF4;} .st2{fill:#F0C9AE;} .st3{fill:#E2B698;} .st4{fill:#ED5C23;} .st5{fill:#F47321;} .st6{fill:#8A6845;} .st7{fill:#745539;} .st8{fill:#EEF2FA;} .st9{fill:#D5E5F2;} .st10{fill:#91CA60;} .st11{fill:#70BB57;} .st12{fill:#AE89BF;} .st13{fill:#9675B4;} .st14{fill:#8D6DAF;} .st15{fill:#004463;} .st16{fill:#61AF45;} .st17{fill:#607D95;} .st18{fill:#4B6C85;} .st19{fill:#90CFF1;} .st20{fill:#70B7E6;} .st21{fill:#B0C4DA;} .st22{fill:#99B5CE;} .st23{fill:#FECB5B;} .st24{fill:#F8B545;} .st25{fill:#EA9F32;} .st26{fill:#014CB1;} .st27{fill:#40657C;} .st28{fill:#B285BB;} .st29{fill:#9768AB;} .st30{fill:#FFFFFF;} .st31{fill:#EF4A4C;} .st32{fill:none;stroke:#4F5266;stroke-linecap:round;stroke-linejoin:round;stroke-miterlimit:10;} .st33{fill:#4F5266;} .st34{fill:#606060;} .st35{fill:none;stroke:#4F5266;stroke-miterlimit:10;} .st36{fill:#4F5266;stroke:#4F5266;stroke-miterlimit:10;} .st37{fill:#67ACD5;} .st38{fill:none;stroke:#40455A;stroke-linecap:round;stroke-linejoin:round;stroke-miterlimit:10;} .st39{fill:#B58C66;} .st40{fill:#362B5B;} .st41{fill:#FF527B;} .st42{fill:#E4E8EA;} .st43{fill:#AFABB2;} .st44{fill:#66AAD3;} .st45{fill:#5890CC;} .st46{fill:#FFD986;} .st47{fill:#5B5D70;} .st48{fill:none;stroke:#40455A;stroke-miterlimit:10;} .st49{fill:#FFDA87;} .st50{fill:#F7A053;} .st51{fill:#FF9E68;} .st52{fill:#E67144;} .st53{fill:#C06200;} .st54{fill:#E0313F;} .st55{fill:#898B99;} .st56{fill:#D1283D;} .st57{fill:#E55123;} .st58{fill:#516D97;} .st59{fill:#5C5E70;} .st60{fill:#CAA9CF;} .st61{fill:none;stroke:#004463;stroke-linecap:round;stroke-linejoin:round;stroke-miterlimit:10;} .st62{fill:#3C3B41;} .st63{fill:#E9DCEC;} .st64{fill:#C9CEC4;} .st65{fill:#8D5AA3;} .st66{fill:none;stroke:#8D5AA3;stroke-linecap:round;stroke-linejoin:round;stroke-miterlimit:10;} .st67{fill:#FF5345;} .st68{fill:#A3D86B;} .st69{fill:#5791D1;} .st70{fill:#A17852;} .st71{fill:#FED8AA;} .st72{fill:#5A5D70;} .st73{fill:#A95D8A;} .st74{fill:#814F80;} .st75{fill:#DB3A3A;} .st76{fill:#64BC50;} .st77{fill:#FED8AA;stroke:#40455A;stroke-linecap:round;stroke-linejoin:round;stroke-miterlimit:10;} .st78{fill:#EA3F3B;} .st79{fill:#E37A49;} .st80{fill:#C15C49;} .st81{fill:#A17852;stroke:#40455A;stroke-miterlimit:10;} .st82{fill:#A2E2FF;} .st83{fill:#FED8AA;stroke:#40455A;stroke-miterlimit:10;} .st84{fill:#5C5E70;stroke:#40455A;stroke-miterlimit:10;} .st85{fill:#4F5266;stroke:#40455A;stroke-miterlimit:10;} .st86{fill:#787882;stroke:#40455A;stroke-miterlimit:10;} .st87{fill:#40455A;} .st88{fill:#E67401;} .st89{fill:#2A292E;} .st90{fill:#17161B;} .st91{fill:#00459D;}</style><path class="st10" d="M25.5 21h-17c-.6 0-1-.4-1-1V8c0-.6.4-1 1-1h17c.6 0 1 .4 1 1v12c0 .6-.4 1-1 1z" fill="#91CA60"/><path class="st17" d="M7.5 20c0 .6.4 1 1 1h17c.6 0 1-.4 1-1v-2h-19v2z" fill="#607D95"/><path class="st18" d="M9.5 20v-2h-2v2c0 .6.4 1 1 1h2c-.6 0-1-.5-1-1z" fill="#4B6C85"/><path class="st11" d="M25.5 15.9h-11c-2.8 0-5-2.2-5-5V8c0-.6.4-1 1-1h-2c-.6 0-1 .4-1 1v9.9h19v-3c0 .6-.4 1-1 1z" fill="#70BB57"/><path class="st8" fill="#EEF2FA" d="M14.5 21h5v4h-5z"/><path class="st9" d="M17 22.5h2.5V21h-5v4H16v-1.5c0-.6.4-1 1-1z" fill="#D5E5F2"/><path class="st17" d="M5.5 22c0 1.1-.9 2-2 2s-2-.9-2-2c0-.6.2-1.1.6-1.4.3-.4.8-.6 1.4-.6 1.1 0 2 .9 2 2z" fill="#607D95"/><path class="st17" d="M7.5 18c-1.1 0-2-.9-2-2 0-.6.2-1.1.6-1.4.3-.4.8-.6 1.4-.6" fill="#607D95"/><path class="st17" d="M31.5 14.5v-2h-1.2c-.1-.2-.2-.4-.3-.7l.8-.8-1.4-1.4-.8.8c-.2-.1-.4-.2-.7-.3V9h-1.5v3.1c.3-.1.4-.1.6-.1.8 0 1.5.7 1.5 1.5S27.8 15 27 15c-.2 0-.3 0-.5-.1V18H28v-1.2c.2-.1.4-.2.7-.3l.8.8 1.4-1.4-.8-.8c.1-.2.2-.4.3-.7h1.1z" fill="#607D95"/><path class="st15" d="M13.5 15.5h-3c-.1 0-.3-.1-.4-.2s-.1-.2-.1-.4l.8-4c.1-.3.3-.5.6-.4.3.1.5.3.4.6l-.6 3.4h2.4c.3 0 .5.2.5.5s-.3.5-.6.5z" fill="#004463"/><path class="st15" d="M12.5 16.5c-.3 0-.5-.2-.5-.5v-3c0-.3.2-.5.5-.5s.5.2.5.5v3c0 .3-.2.5-.5.5z" fill="#004463"/><path class="st15" d="M23.5 15.5h-3c-.1 0-.3-.1-.4-.2s-.1-.2-.1-.4l.8-4c.1-.3.3-.5.6-.4.3.1.5.3.4.6l-.6 3.4h2.4c.3 0 .5.2.5.5s-.3.5-.6.5z" fill="#004463"/><path class="st15" d="M22.5 16.5c-.3 0-.5-.2-.5-.5v-3c0-.3.2-.5.5-.5s.5.2.5.5v3c0 .3-.2.5-.5.5z" fill="#004463"/><path class="st15" d="M25.5 21.5h-17c-.8 0-1.5-.7-1.5-1.5V8c0-.8.7-1.5 1.5-1.5h17c.8 0 1.5.7 1.5 1.5v12c0 .8-.7 1.5-1.5 1.5zm-17-14c-.3 0-.5.2-.5.5v12c0 .3.2.5.5.5h17c.3 0 .5-.2.5-.5V8c0-.3-.2-.5-.5-.5h-17z" fill="#004463"/><path class="st15" d="M23.5 25.5h-13c-.3 0-.5-.2-.5-.5s.2-.5.5-.5h13c.3 0 .5.2.5.5s-.2.5-.5.5z" fill="#004463"/><path class="st15" d="M26.5 18.5h-19c-.3 0-.5-.2-.5-.5s.2-.5.5-.5h19c.3 0 .5.2.5.5s-.2.5-.5.5z" fill="#004463"/><path class="st15" d="M19.5 25.5h-5c-.3 0-.5-.2-.5-.5v-4c0-.3.2-.5.5-.5h5c.3 0 .5.2.5.5v4c0 .3-.2.5-.5.5zm-4.5-1h4v-3h-4v3z" fill="#004463"/><path class="st15" d="M6.5 22.5h-1c-.3 0-.5-.2-.5-.5s.2-.5.5-.5h1c.3 0 .5.2.5.5s-.2.5-.5.5z" fill="#004463"/><path class="st15" d="M1.5 22.5h-1c-.3 0-.5-.2-.5-.5s.2-.5.5-.5h1c.3 0 .5.2.5.5s-.2.5-.5.5z" fill="#004463"/><path class="st15" d="M3.5 20.5c-.3 0-.5-.2-.5-.5v-1c0-.3.2-.5.5-.5s.5.2.5.5v1c0 .3-.2.5-.5.5z" fill="#004463"/><path class="st15" d="M3.5 25.5c-.3 0-.5-.2-.5-.5v-1c0-.3.2-.5.5-.5s.5.2.5.5v1c0 .3-.2.5-.5.5z" fill="#004463"/><path class="st15" d="M2.1 21.1c-.1 0-.3 0-.4-.1l-.7-.8c-.2-.2-.2-.5 0-.7s.5-.2.7 0l.7.7c.2.2.2.5 0 .7-.1.1-.2.2-.3.2z" fill="#004463"/><path class="st15" d="M5.6 24.6c-.1 0-.3 0-.4-.1l-.7-.7c-.2-.2-.2-.5 0-.7s.5-.2.7 0l.8.7c.2.2.2.5 0 .7-.1.1-.3.1-.4.1z" fill="#004463"/><path class="st15" d="M4.9 21.1c-.1 0-.3 0-.4-.1-.2-.2-.2-.5 0-.7l.7-.7c.2-.2.5-.2.7 0s.2.5 0 .7l-.7.7s-.2.1-.3.1z" fill="#004463"/><path class="st15" d="M1.4 24.6c-.1 0-.3 0-.4-.1-.2-.2-.2-.5 0-.7l.7-.7c.2-.2.5-.2.7 0s.2.5 0 .7l-.7.7c-.1.1-.2.1-.3.1z" fill="#004463"/><circle class="st15" cx="3.5" cy="22" r="0.5" fill="#004463"/><path class="st15" d="M3.5 24.5C2.1 24.5 1 23.4 1 22c0-.7.3-1.3.7-1.8.5-.5 1.1-.7 1.8-.7C4.9 19.5 6 20.6 6 22s-1.1 2.5-2.5 2.5zm0-4c-.4 0-.8.2-1.1.4-.2.3-.4.7-.4 1.1 0 .8.7 1.5 1.5 1.5S5 22.8 5 22s-.7-1.5-1.5-1.5z" fill="#004463"/><path class="st15" d="M5.5 16.5h-1c-.3 0-.5-.2-.5-.5s.2-.5.5-.5h1c.3 0 .5.2.5.5s-.2.5-.5.5z" fill="#004463"/><path class="st15" d="M6.1 15.1c-.1 0-.3 0-.4-.1l-.7-.8c-.2-.2-.2-.5 0-.7s.5-.2.7 0l.7.7c.2.2.2.5 0 .7-.1.1-.2.2-.3.2z" fill="#004463"/><path class="st15" d="M5.4 18.6c-.1 0-.3 0-.4-.1-.2-.2-.2-.5 0-.7l.7-.7c.2-.2.5-.2.7 0s.2.5 0 .7l-.7.7c-.1.1-.2.1-.3.1z" fill="#004463"/><path class="st15" d="M7.5 18.5C6.1 18.5 5 17.4 5 16c0-.7.3-1.3.7-1.8.5-.5 1.1-.7 1.8-.7v1c-.4 0-.8.2-1.1.4-.2.3-.4.7-.4 1.1 0 .8.7 1.5 1.5 1.5v1z" fill="#004463"/><path class="st15" d="M28 18.5h-1.5c-.3 0-.5-.2-.5-.5V9c0-.3.2-.5.5-.5H28c.3 0 .5.2.5.5v.8l.6-.6c.2-.2.5-.2.7 0l1.4 1.4c.2.2.2.5 0 .7l-.5.7h.8c.3 0 .5.2.5.5v2c0 .3-.2.5-.5.5h-.8l.6.6c.2.2.2.5 0 .7l-1.4 1.4c-.2.2-.5.2-.7 0l-.6-.6v.9c-.1.3-.3.5-.6.5zm-1-1h.5v-.7c0-.2.1-.4.3-.5.2-.1.4-.1.6-.2.2-.1.4-.1.6.1l.5.5.7-.7-.5-.5c-.2-.2-.2-.4-.1-.6.1-.2.2-.4.2-.6.1-.2.3-.4.5-.4h.7v-1h-.7c-.2 0-.4-.1-.5-.4-.1-.2-.1-.4-.2-.6-.1-.2-.1-.4.1-.6l.5-.5-.7-.7-.5.7c-.2.2-.4.2-.6.1-.2-.1-.4-.2-.6-.2-.2-.1-.3-.3-.3-.5v-.7H27v8z" fill="#004463"/><path class="st15" d="M27 15.5c-.2 0-.4 0-.7-.1-.2-.1-.3-.3-.3-.5v-2.8c0-.2.1-.4.3-.5 1.4-.5 2.7.6 2.7 1.9 0 1.1-.9 2-2 2zm0-3v2c.6 0 1-.4 1-1s-.4-1-1-1z" fill="#004463"/><path class="st15" d="M17.5 16.5h-1c-.8 0-1.5-.7-1.5-1.5v-3c0-.8.7-1.5 1.5-1.5h1c.8 0 1.5.7 1.5 1.5v3c0 .8-.7 1.5-1.5 1.5zm-1-5c-.3 0-.5.2-.5.5v3c0 .3.2.5.5.5h1c.3 0 .5-.2.5-.5v-3c0-.3-.2-.5-.5-.5h-1z" fill="#004463"/><metadata><rdf:RDF xmlns:rdf="http://www.w3.org/1999/02/22-rdf-syntax-ns#" xmlns:rdfs="http://www.w3.org/2000/01/rdf-schema#" xmlns:dc="http://purl.org/dc/elements/1.1/"><rdf:Description about="https://iconscout.com/legal#licenses" dc:title="error,page,not,found,bug,maintenance" dc:description="error,page,not,found,bug,maintenance" dc:publisher="Iconscout" dc:date="2017-09-07" dc:format="image/svg+xml" dc:language="en"><dc:creator><rdf:Bag><rdf:li>Jemis Mali</rdf:li></rdf:Bag></dc:creator></rdf:Description></rdf:RDF></metadata></svg>