<?xml version="1.0" encoding="UTF-8"?><!DOCTYPE svg PUBLIC "-//W3C//DTD SVG 1.1//EN" "http://www.w3.org/Graphics/SVG/1.1/DTD/svg11.dtd"><svg xmlns="http://www.w3.org/2000/svg" xmlns:xlink="http://www.w3.org/1999/xlink" version="1.1" id="document-checkmark" x="0px" y="0px" viewBox="0 0 1010.0024 981.0195" xml:space="preserve"><path fill="#FF9554" d="M710.16 186.515V886.23H12.95V13.578h504.8"/><path fill="#4D4D4D" d="M710.16 899.179H12.95C5.792 899.179 0 893.387 0 886.23V13.578C0 6.42 5.792.628 12.949.628h504.8c7.157 0 12.949 5.792 12.949 12.95 0 7.157-5.792 12.948-12.949 12.948H25.897v846.755h671.314V186.515c0-7.158 5.792-12.95 12.95-12.95 7.157 0 12.949 5.792 12.949 12.95V886.23c0 7.157-5.792 12.949-12.95 12.949z"/><path fill="#4D4D4D" d="M621.34 300.322H88.517c-7.157 0-12.949-5.791-12.949-12.948 0-7.158 5.792-12.95 12.95-12.95H621.34c7.157 0 12.949 5.792 12.949 12.95 0 7.157-5.792 12.948-12.949 12.948z"/><path fill="#4D4D4D" d="M621.34 395.01H88.517c-7.157 0-12.949-5.791-12.949-12.948 0-7.158 5.792-12.95 12.95-12.95H621.34c7.157 0 12.949 5.792 12.949 12.95 0 7.157-5.792 12.948-12.949 12.948z"/><path fill="#4D4D4D" d="M621.34 495.667H88.517c-7.157 0-12.949-5.792-12.949-12.95 0-7.157 5.792-12.948 12.95-12.948H621.34c7.157 0 12.949 5.792 12.949 12.949s-5.792 12.949-12.949 12.949z"/><path fill="#4D4D4D" d="M621.34 590.38H88.517c-7.157 0-12.949-5.791-12.949-12.948 0-7.158 5.792-12.95 12.95-12.95H621.34c7.157 0 12.949 5.792 12.949 12.95 0 7.157-5.792 12.949-12.949 12.949z"/><path fill="#4D4D4D" d="M621.34 696.93H88.517c-7.157 0-12.949-5.791-12.949-12.95 0-7.156 5.792-12.948 12.95-12.948H621.34c7.157 0 12.949 5.792 12.949 12.948 0 7.159-5.792 12.95-12.949 12.95z"/><path fill="#4D4D4D" d="M621.34 791.693H88.517c-7.157 0-12.949-5.79-12.949-12.948 0-7.157 5.792-12.948 12.95-12.948H621.34c7.157 0 12.949 5.79 12.949 12.948 0 7.157-5.792 12.948-12.949 12.948z"/><path fill="#FFF" d="M705.71 179.737L531.407 12.97v167.576z"/><path fill="#4D4D4D" d="M531.407 193.495a13.008 13.008 0 0 1-9.13-3.769 12.918 12.918 0 0 1-3.82-9.18V12.97c0-5.184 3.086-9.863 7.866-11.911C531.078-1.015 536.59.02 540.36 3.613l174.302 166.766c3.819 3.642 5.034 9.256 3.085 14.163-1.972 4.88-6.702 8.118-11.987 8.143l-174.302.81h-.051zm12.949-150.226v124.277l129.234-.607L544.356 43.27z"/><g><path fill="#4D4D4D" d="M449.667 110.92H88.517c-7.157 0-12.949-5.79-12.949-12.948 0-7.157 5.792-12.949 12.95-12.949h361.149c7.157 0 12.949 5.792 12.949 12.95 0 7.156-5.792 12.948-12.949 12.948z"/></g><g><path fill="#4D4D4D" d="M449.667 199.69H88.517c-7.157 0-12.949-5.79-12.949-12.948 0-7.157 5.792-12.949 12.95-12.949h361.149c7.157 0 12.949 5.792 12.949 12.95 0 7.156-5.792 12.948-12.949 12.948z"/></g><g><path fill="#FFF" d="M851.535 268.304V968.07H154.273V95.392h504.901"/><path fill="#4D4D4D" d="M851.535 981.02H154.273c-7.158 0-12.95-5.792-12.95-12.95V95.392c0-7.157 5.792-12.948 12.95-12.948h504.901c7.159 0 12.95 5.791 12.95 12.949 0 7.157-5.791 12.948-12.95 12.948H167.222v846.78h671.363V268.304c0-7.157 5.791-12.949 12.95-12.949 7.156 0 12.949 5.792 12.949 12.95V968.07c0 7.157-5.793 12.95-12.95 12.95z"/><path fill="#4D4D4D" d="M762.665 382.137H229.866c-7.157 0-12.948-5.791-12.948-12.949s5.791-12.948 12.948-12.948h532.799c7.155 0 12.948 5.791 12.948 12.948s-5.793 12.95-12.948 12.95z"/><path fill="#4D4D4D" d="M762.665 476.901H229.866c-7.157 0-12.948-5.791-12.948-12.949 0-7.157 5.791-12.949 12.948-12.949h532.799c7.155 0 12.948 5.792 12.948 12.95 0 7.157-5.793 12.948-12.948 12.948z"/><path fill="#4D4D4D" d="M762.665 577.482H229.866c-7.157 0-12.948-5.79-12.948-12.949 0-7.156 5.791-12.948 12.948-12.948h532.799c7.155 0 12.948 5.792 12.948 12.948 0 7.158-5.793 12.95-12.948 12.95z"/><path fill="#4D4D4D" d="M762.665 672.271H229.866c-7.157 0-12.948-5.79-12.948-12.949 0-7.156 5.791-12.948 12.948-12.948h532.799c7.155 0 12.948 5.792 12.948 12.948 0 7.158-5.793 12.95-12.948 12.95z"/><path fill="#4D4D4D" d="M762.665 778.82H229.866c-7.157 0-12.948-5.79-12.948-12.948 0-7.157 5.791-12.948 12.948-12.948h532.799c7.155 0 12.948 5.79 12.948 12.948 0 7.157-5.793 12.948-12.948 12.948z"/><path fill="#4D4D4D" d="M762.665 873.534H229.866c-7.157 0-12.948-5.792-12.948-12.948 0-7.158 5.791-12.95 12.948-12.95h532.799c7.155 0 12.948 5.792 12.948 12.95 0 7.156-5.793 12.948-12.948 12.948z"/><path fill="#FFF" d="M847.083 261.552L672.731 94.786v167.55z"/><path fill="#4D4D4D" d="M672.731 275.285a13.01 13.01 0 0 1-9.13-3.769 12.915 12.915 0 0 1-3.82-9.18V94.786c0-5.185 3.087-9.864 7.866-11.913 4.755-2.073 10.268-1.036 14.037 2.555l174.353 166.766c3.818 3.642 5.03 9.257 3.084 14.163-1.973 4.88-6.702 8.118-11.987 8.143l-174.352.785h-.051zm12.948-150.202v124.253l129.285-.581L685.68 125.083z"/><g><path fill="#4D4D4D" d="M590.99 192.685H229.867c-7.157 0-12.949-5.791-12.949-12.948 0-7.158 5.792-12.949 12.95-12.949H590.99c7.158 0 12.949 5.791 12.949 12.949 0 7.157-5.791 12.948-12.95 12.948z"/></g><g><path fill="#4D4D4D" d="M590.99 281.557H229.867c-7.157 0-12.949-5.792-12.949-12.95 0-7.156 5.792-12.948 12.95-12.948H590.99c7.158 0 12.949 5.792 12.949 12.949s-5.791 12.949-12.95 12.949z"/></g></g><g><path fill="#5FD4AF" d="M632.012 505.555l252.755-370.633h112.29L699.437 584.159h-134.85l-112.29-247.115H553.46z"/><path fill="#4D4D4D" d="M699.438 597.107h-134.85a12.924 12.924 0 0 1-11.786-7.587l-112.29-247.114c-1.821-4.021-1.492-8.675.91-12.367a12.888 12.888 0 0 1 10.875-5.944H553.46c5.034 0 9.612 2.909 11.736 7.486l68.942 147.874 239.93-351.817a12.947 12.947 0 0 1 10.7-5.665h112.29c4.779 0 9.155 2.63 11.405 6.828a12.968 12.968 0 0 1-.607 13.278L710.237 591.316a12.954 12.954 0 0 1-10.799 5.791zm-126.504-25.896h119.549l280.472-423.34H891.62L642.71 512.839c-2.63 3.87-7.537 5.867-11.736 5.614a12.951 12.951 0 0 1-10.697-7.435l-75.063-161.025h-72.812l100.531 221.218z"/></g><metadata><rdf:RDF xmlns:rdf="http://www.w3.org/1999/02/22-rdf-syntax-ns#" xmlns:rdfs="http://www.w3.org/2000/01/rdf-schema#" xmlns:dc="http://purl.org/dc/elements/1.1/"><rdf:Description about="https://iconscout.com/legal#licenses" dc:title="document,checkmark" dc:description="document,checkmark" dc:publisher="Iconscout" dc:date="2017-09-21" dc:format="image/svg+xml" dc:language="en"><dc:creator><rdf:Bag><rdf:li>Vecteezy</rdf:li></rdf:Bag></dc:creator></rdf:Description></rdf:RDF></metadata></svg>