<?xml version="1.0" encoding="UTF-8"?><svg xmlns="http://www.w3.org/2000/svg" xmlns:xlink="http://www.w3.org/1999/xlink" version="1.1" id="Layer_1" x="0px" y="0px" viewBox="0 0 32 32" xml:space="preserve"><style type="text/css">.st0{fill:#01A6FF;} .st1{fill:#006EF4;} .st2{fill:#F0C9AE;} .st3{fill:#E2B698;} .st4{fill:#ED5C23;} .st5{fill:#F47321;} .st6{fill:#8A6845;} .st7{fill:#745539;} .st8{fill:#EEF2FA;} .st9{fill:#D5E5F2;} .st10{fill:#91CA60;} .st11{fill:#70BB57;} .st12{fill:#AE89BF;} .st13{fill:#9675B4;} .st14{fill:#8D6DAF;} .st15{fill:#004463;} .st16{fill:#61AF45;} .st17{fill:#607D95;} .st18{fill:#4B6C85;} .st19{fill:#90CFF1;} .st20{fill:#70B7E6;} .st21{fill:#B0C4DA;} .st22{fill:#99B5CE;} .st23{fill:#FECB5B;} .st24{fill:#F8B545;} .st25{fill:#EA9F32;} .st26{fill:#014CB1;} .st27{fill:#40657C;} .st28{fill:#B285BB;} .st29{fill:#9768AB;} .st30{fill:#FFFFFF;} .st31{fill:#EF4A4C;} .st32{fill:none;stroke:#4F5266;stroke-linecap:round;stroke-linejoin:round;stroke-miterlimit:10;} .st33{fill:#4F5266;} .st34{fill:#606060;} .st35{fill:none;stroke:#4F5266;stroke-miterlimit:10;} .st36{fill:#4F5266;stroke:#4F5266;stroke-miterlimit:10;} .st37{fill:#67ACD5;} .st38{fill:none;stroke:#40455A;stroke-linecap:round;stroke-linejoin:round;stroke-miterlimit:10;} .st39{fill:#B58C66;} .st40{fill:#362B5B;} .st41{fill:#FF527B;} .st42{fill:#E4E8EA;} .st43{fill:#AFABB2;} .st44{fill:#66AAD3;} .st45{fill:#5890CC;} .st46{fill:#FFD986;} .st47{fill:#5B5D70;} .st48{fill:none;stroke:#40455A;stroke-miterlimit:10;} .st49{fill:#FFDA87;} .st50{fill:#F7A053;} .st51{fill:#FF9E68;} .st52{fill:#E67144;} .st53{fill:#C06200;} .st54{fill:#E0313F;} .st55{fill:#898B99;} .st56{fill:#D1283D;} .st57{fill:#E55123;} .st58{fill:#516D97;} .st59{fill:#5C5E70;} .st60{fill:#CAA9CF;} .st61{fill:none;stroke:#004463;stroke-linecap:round;stroke-linejoin:round;stroke-miterlimit:10;} .st62{fill:#3C3B41;} .st63{fill:#E9DCEC;} .st64{fill:#C9CEC4;} .st65{fill:#8D5AA3;} .st66{fill:none;stroke:#8D5AA3;stroke-linecap:round;stroke-linejoin:round;stroke-miterlimit:10;} .st67{fill:#FF5345;} .st68{fill:#A3D86B;} .st69{fill:#5791D1;} .st70{fill:#A17852;} .st71{fill:#FED8AA;} .st72{fill:#5A5D70;} .st73{fill:#A95D8A;} .st74{fill:#814F80;} .st75{fill:#DB3A3A;} .st76{fill:#64BC50;} .st77{fill:#FED8AA;stroke:#40455A;stroke-linecap:round;stroke-linejoin:round;stroke-miterlimit:10;} .st78{fill:#EA3F3B;} .st79{fill:#E37A49;} .st80{fill:#C15C49;} .st81{fill:#A17852;stroke:#40455A;stroke-miterlimit:10;} .st82{fill:#A2E2FF;} .st83{fill:#FED8AA;stroke:#40455A;stroke-miterlimit:10;} .st84{fill:#5C5E70;stroke:#40455A;stroke-miterlimit:10;} .st85{fill:#4F5266;stroke:#40455A;stroke-miterlimit:10;} .st86{fill:#787882;stroke:#40455A;stroke-miterlimit:10;} .st87{fill:#40455A;} .st88{fill:#E67401;} .st89{fill:#2A292E;} .st90{fill:#17161B;} .st91{fill:#00459D;}</style><path class="st19" fill="#90CFF1" d="M24.5 6l-6 6 6.3 6.3 6-6"/><path class="st20" d="M23.4 14.9L19.5 11l-1 1 6.4 6.4 6-6-1-1-3.6 3.6c-.8.7-2.1.7-2.9-.1z" fill="#70B7E6"/><path class="st30" fill="#FFF" d="M2.2 12l6 6 6.4-6.4-6-6"/><path class="st17" fill="#607D95" d="M1.2 10.9l4.2 4.2 6.4-6.3-4.3-4.3"/><path class="st17" fill="#607D95" d="M1.2 10.9l4.2 4.2 6.4-6.3-4.3-4.3"/><path class="st9" d="M6.8 14.6L3.2 11l-1 1 6 6 6.4-6.4-1-1-3.9 3.9c-.8.8-2.1.8-2.9.1z" fill="#D5E5F2"/><path class="st17" fill="#607D95" d="M1.2 10.9l4.2 4.2 6.4-6.3-4.3-4.3"/><path transform="matrix(0.7071 -0.7071 0.7071 0.7071 -7.7518 6.3358)" class="st18" fill="#4B6C85" d="M3.1 9.5h1.4v6H3.1z"/><path class="st3" d="M23.1 21.5l-.7-.7-1.4 1.4-1.4 1.4-1.5 1.4-1.4 1.4.7.7c.4.4 1 .4 1.4 0 .4-.4.4-1 0-1.4.4.4 1 .4 1.4 0 .4-.4.4-1 0-1.4.4.4 1 .4 1.4 0 .4-.4.4-1 0-1.4.4.4 1 .4 1.4 0 .5-.4.5-1 .1-1.4z" fill="#E2B698"/><path class="st2" d="M17.6 17.5c.7.7 1.8.7 2.4 0l.2-.2-3.8-3.8-1.9.3-.9-.9.2-.5-2.6 2.6-2.7 2.7.5-.2 1.2 1.2c-.4.4-.4 1 0 1.4l.7.7 4.9-5 1.8 1.7z" fill="#F0C9AE"/><path class="st3" d="M13.9 12.3L11.2 15l-2.7 2.7.5-.2.8.8.4.4c-.4.4-.4 1 0 1.4l.7.7.1-.1.9-.9-.4-.4c-.3-.3-.3-.6-.3-1 .1-.3.1-.7-.2-.9l-.3-.3 1.3-1.3 2.3-2.3-.8-.8.4-.5z" fill="#E2B698"/><path class="st2" d="M24.1 17.6l-4.9-4.9-1.4 1.4-1.8 1.8-5.3 5.3c-.4.4-.4 1 0 1.4.4.4 1 .4 1.4 0-.4.4-.4 1 0 1.4.4.4 1 .4 1.4 0-.4.4-.4 1 0 1.4.4.4 1 .4 1.4 0-.4.4-.4 1 0 1.4.4.4 1 .4 1.4 0l4.9-4.9.7-.7.7-.7c.4-.4.4-1 0-1.4l1.5-1.5z" fill="#F0C9AE"/><path class="st3" d="M24.1 17.6l-1-1-3.9-3.9-1.4 1.4-1 1 1.4-1.4 3.2 3.2c.4.4.4 1 0 1.4l-.3.3c-.2.2-.3.6-.2.9.1.3 0 .7-.3 1l-.4.4-4.6 4.6c-.1-.4-.1-.8.2-1.1-.4.4-1 .4-1.4 0-.4-.4-.4-1 0-1.4-.4.4-1 .4-1.4 0-.4-.4-.4-1 0-1.4-.4.4-1 .4-1.4 0-.4-.4-.4-1 0-1.4l-1 1c-.4.4-.4 1 0 1.4.4.4 1 .4 1.4 0-.4.4-.4 1 0 1.4.4.4 1 .4 1.4 0-.4.4-.4 1 0 1.4.4.4 1 .4 1.4 0-.4.4-.4 1 0 1.4.4.4 1 .4 1.4 0l4.9-4.9.3-.3-.1.1.5-.5.7-.7c.4-.4.4-1 0-1.4l1.6-1.5z" fill="#E2B698"/><path class="st15" d="M24.8 18.8c-.1 0-.3 0-.4-.1L18 12.3V12c0-.1.1-.3.1-.4l6-6c.2-.2.5-.2.7 0s.2.5 0 .7L19.2 12l5.7 5.7 5.7-5.7c.2-.2.5-.2.7 0s.2.5 0 .7l-6 6c-.2.1-.3.1-.5.1z" fill="#004463"/><path class="st15" d="M17.8 14.6c-.1 0-.3 0-.4-.1-.2-.2-.2-.5 0-.7l1.1-1.1c.2-.2.5-.2.7 0s.2.5 0 .7l-1.1 1.1c-.1 0-.2.1-.3.1z" fill="#004463"/><path class="st15" d="M11.4 23.4c-.4 0-.8-.1-1.1-.4-.6-.6-.6-1.5 0-2.1l5.3-5.3c.2-.2.5-.2.7 0s.2.5 0 .7L11 21.5c-.2.2-.2.5 0 .7.2.2.5.2.7 0l1.4-1.4c.2-.2.5-.2.7 0s.2.5 0 .7l-1.4 1.4c-.2.3-.6.5-1 .5z" fill="#004463"/><path class="st15" d="M12.8 24.8c-.4 0-.8-.2-1.1-.4-.6-.6-.6-1.5 0-2.1l1.4-1.4c.2-.2.5-.2.7 0s.2.5 0 .7L12.4 23c-.2.2-.2.5 0 .7.1.1.2.1.4.1.1 0 .3-.1.4-.1l1.4-1.4c.2-.2.5-.2.7 0s.2.5 0 .7l-1.4 1.4c-.3.2-.7.4-1.1.4z" fill="#004463"/><path class="st15" d="M14.2 26.2c-.4 0-.8-.1-1.1-.4-.6-.6-.6-1.5 0-2.1l1.4-1.4c.2-.2.5-.2.7 0s.2.5 0 .7l-1.4 1.4c-.2.2-.2.5 0 .7s.5.2.7 0l1.4-1.4c.2-.2.5-.2.7 0s.2.5 0 .7l-1.4 1.4c-.2.2-.6.4-1 .4z" fill="#004463"/><path class="st15" d="M18.1 28c-.4 0-.8-.1-1.1-.4l-.7-.7c-.2-.2-.2-.5 0-.7s.5-.2.7 0l.7.7c.2.2.5.2.7 0 .1-.1.1-.2.1-.4s-.1-.3-.1-.4l-.7-.7c-.2-.2-.2-.5 0-.7s.5-.2.7 0l.7.7c.6.6.6 1.5 0 2.1-.2.3-.6.5-1 .5z" fill="#004463"/><path class="st15" d="M19.5 26.5c-.4 0-.8-.2-1.1-.4l-.7-.7c-.2-.2-.2-.5 0-.7s.5-.2.7 0l.7.7c.1.1.2.1.4.1.1 0 .3-.1.4-.1s.1-.2.1-.4-.1-.3-.1-.4l-.7-.6c-.2-.2-.2-.5 0-.7s.5-.2.7 0l.7.7c.6.6.6 1.5 0 2.1-.3.3-.7.4-1.1.4z" fill="#004463"/><path class="st15" d="M21 25.1c-.4 0-.8-.1-1.1-.4l-.7-.7c-.2-.2-.2-.5 0-.7s.5-.2.7 0l.7.7c.2.2.5.2.7 0 .2-.2.2-.5 0-.7l-.7-.7c-.2-.2-.2-.5 0-.7s.5-.2.7 0l.7.7c.6.6.6 1.5 0 2.1-.3.3-.7.4-1 .4z" fill="#004463"/><path class="st15" d="M22.4 23.7c-.4 0-.8-.1-1.1-.4l-.7-.7c-.2-.2-.2-.5 0-.7s.5-.2.7 0l.7.7c.2.2.5.2.7 0 .1-.1.1-.2.1-.4s-.1-.3-.1-.4l-.7-.6c-.2-.2-.2-.5 0-.7s.5-.2.7 0l.7.7c.6.6.6 1.5 0 2.1-.3.3-.7.4-1 .4z" fill="#004463"/><path class="st15" d="M15.6 27.6c-.4 0-.8-.1-1.1-.4-.6-.6-.6-1.5 0-2.1l1.4-1.4c.2-.2.5-.2.7 0s.2.5 0 .7l-1.4 1.4c-.2.2-.2.5 0 .7s.5.2.7 0l6.4-6.4c.2-.2.2-.5 0-.7s-.2-.5 0-.7l1.1-1.1-4.2-4.2-1.1 1.1c-.2.2-.5.2-.7 0s-.2-.5 0-.7l1.4-1.4c.2-.2.5-.2.7 0l5 4.9c.1.1.1.2.1.4s-.1.3-.1.4l-1.1 1.1c.3.6.2 1.2-.3 1.7l-6.4 6.4c-.3.2-.7.3-1.1.3z" fill="#004463"/><path class="st15" d="M8.2 18.5c-.1 0-.3 0-.4-.1l-6-6c-.2-.2-.2-.5 0-.7s.5-.2.7 0l5.7 5.7 5.7-5.7L8.2 6c-.2-.2-.2-.6 0-.8s.5-.2.7 0l6 6c.1.1.1.2.1.4s0 .3-.1.4l-6.4 6.4s-.2.1-.3.1z" fill="#004463"/><path class="st15" d="M5.4 15.6c-.1 0-.3 0-.4-.1L.8 11.3c-.2-.2-.2-.5 0-.7s.5-.2.7 0l3.9 3.9 5.7-5.7-3.9-3.9c-.2-.2-.2-.5 0-.7s.5-.2.7 0l4.2 4.2c.1.1.1.2.1.4s0 .2-.1.3l-6.4 6.4c-.1.1-.2.1-.3.1z" fill="#004463"/><ellipse transform="matrix(0.7071 -0.7071 0.7071 0.7071 -8.2975 10.239)" class="st15" cx="8.2" cy="15.1" rx="0.5" ry="0.5" fill="#004463"/><path class="st15" d="M11 21.3c-.1 0-.3 0-.4-.1l-.6-.7c-.5-.5-.6-1.2-.3-1.7l-1.1-1.1c-.1-.1-.1-.2-.1-.4s.1-.3.1-.4l5-4.9c.2-.2.5-.2.7 0s.2.5 0 .7l-4.6 4.6 1.1 1.1c.2.2.2.5 0 .7s-.2.5 0 .7l.7.7c.2.2.2.5 0 .7-.2.1-.3.1-.5.1z" fill="#004463"/><path class="st15" d="M18.8 18.5c-.6 0-1.2-.2-1.6-.7l-1.9-1.9c-.2-.2-.2-.5 0-.7s.5-.2.7 0l1.9 1.9c.4.4 1.1.5 1.6.1L16.3 14l-1.6.2c-.2 0-.3 0-.4-.1l-.7-.7L8.9 18c-.2.2-.5.2-.7 0s-.2-.5 0-.7l5-4.9c.2-.2.5-.2.7 0l.9.9 1.6-.2c.2 0 .3 0 .4.1l3.8 3.8c.2.2.2.5 0 .7l-.2.2c-.4.3-1 .6-1.6.6z" fill="#004463"/><metadata><rdf:RDF xmlns:rdf="http://www.w3.org/1999/02/22-rdf-syntax-ns#" xmlns:rdfs="http://www.w3.org/2000/01/rdf-schema#" xmlns:dc="http://purl.org/dc/elements/1.1/"><rdf:Description about="https://iconscout.com/legal#licenses" dc:title="partnership,deal,shakehand,contact,friend" dc:description="partnership,deal,shakehand,contact,friend" dc:publisher="Iconscout" dc:date="2017-09-07" dc:format="image/svg+xml" dc:language="en"><dc:creator><rdf:Bag><rdf:li>Jemis Mali</rdf:li></rdf:Bag></dc:creator></rdf:Description></rdf:RDF></metadata></svg>