<?xml version="1.0" encoding="UTF-8"?><svg xmlns="http://www.w3.org/2000/svg" xmlns:xlink="http://www.w3.org/1999/xlink" version="1.1" id="Layer_1" x="0px" y="0px" viewBox="0 0 32 32" xml:space="preserve"><style type="text/css">.st0{fill:#01A6FF;} .st1{fill:#006EF4;} .st2{fill:#F0C9AE;} .st3{fill:#E2B698;} .st4{fill:#ED5C23;} .st5{fill:#F47321;} .st6{fill:#8A6845;} .st7{fill:#745539;} .st8{fill:#EEF2FA;} .st9{fill:#D5E5F2;} .st10{fill:#91CA60;} .st11{fill:#70BB57;} .st12{fill:#AE89BF;} .st13{fill:#9675B4;} .st14{fill:#8D6DAF;} .st15{fill:#004463;} .st16{fill:#61AF45;} .st17{fill:#607D95;} .st18{fill:#4B6C85;} .st19{fill:#90CFF1;} .st20{fill:#70B7E6;} .st21{fill:#B0C4DA;} .st22{fill:#99B5CE;} .st23{fill:#FECB5B;} .st24{fill:#F8B545;} .st25{fill:#EA9F32;} .st26{fill:#014CB1;} .st27{fill:#40657C;} .st28{fill:#B285BB;} .st29{fill:#9768AB;} .st30{fill:#FFFFFF;} .st31{fill:#EF4A4C;} .st32{fill:none;stroke:#4F5266;stroke-linecap:round;stroke-linejoin:round;stroke-miterlimit:10;} .st33{fill:#4F5266;} .st34{fill:#606060;} .st35{fill:none;stroke:#4F5266;stroke-miterlimit:10;} .st36{fill:#4F5266;stroke:#4F5266;stroke-miterlimit:10;} .st37{fill:#67ACD5;} .st38{fill:none;stroke:#40455A;stroke-linecap:round;stroke-linejoin:round;stroke-miterlimit:10;} .st39{fill:#B58C66;} .st40{fill:#362B5B;} .st41{fill:#FF527B;} .st42{fill:#E4E8EA;} .st43{fill:#AFABB2;} .st44{fill:#66AAD3;} .st45{fill:#5890CC;} .st46{fill:#FFD986;} .st47{fill:#5B5D70;} .st48{fill:none;stroke:#40455A;stroke-miterlimit:10;} .st49{fill:#FFDA87;} .st50{fill:#F7A053;} .st51{fill:#FF9E68;} .st52{fill:#E67144;} .st53{fill:#C06200;} .st54{fill:#E0313F;} .st55{fill:#898B99;} .st56{fill:#D1283D;} .st57{fill:#E55123;} .st58{fill:#516D97;} .st59{fill:#5C5E70;} .st60{fill:#CAA9CF;} .st61{fill:none;stroke:#004463;stroke-linecap:round;stroke-linejoin:round;stroke-miterlimit:10;} .st62{fill:#3C3B41;} .st63{fill:#E9DCEC;} .st64{fill:#C9CEC4;} .st65{fill:#8D5AA3;} .st66{fill:none;stroke:#8D5AA3;stroke-linecap:round;stroke-linejoin:round;stroke-miterlimit:10;} .st67{fill:#FF5345;} .st68{fill:#A3D86B;} .st69{fill:#5791D1;} .st70{fill:#A17852;} .st71{fill:#FED8AA;} .st72{fill:#5A5D70;} .st73{fill:#A95D8A;} .st74{fill:#814F80;} .st75{fill:#DB3A3A;} .st76{fill:#64BC50;} .st77{fill:#FED8AA;stroke:#40455A;stroke-linecap:round;stroke-linejoin:round;stroke-miterlimit:10;} .st78{fill:#EA3F3B;} .st79{fill:#E37A49;} .st80{fill:#C15C49;} .st81{fill:#A17852;stroke:#40455A;stroke-miterlimit:10;} .st82{fill:#A2E2FF;} .st83{fill:#FED8AA;stroke:#40455A;stroke-miterlimit:10;} .st84{fill:#5C5E70;stroke:#40455A;stroke-miterlimit:10;} .st85{fill:#4F5266;stroke:#40455A;stroke-miterlimit:10;} .st86{fill:#787882;stroke:#40455A;stroke-miterlimit:10;} .st87{fill:#40455A;} .st88{fill:#E67401;} .st89{fill:#2A292E;} .st90{fill:#17161B;} .st91{fill:#00459D;}</style><path class="st2" d="M19 10h-1v3h1c.6 0 1-.4 1-1v-1c0-.5-.5-1-1-1z" fill="#F0C9AE"/><path class="st3" d="M18 10h1.2l-.2.5v1c0 .3.2.5.5.5h.5c0 .6-.4 1-1 1h-1v-3z" fill="#E2B698"/><path class="st2" d="M7 11.5V13H6c-.6 0-1-.4-1-1v-1c0-.6.4-1 1-1h1v1.5z" fill="#F0C9AE"/><path class="st3" d="M7 10H5.8l.2.5v1c0 .3-.2.5-.5.5H5c0 .6.4 1 1 1h1v-3z" fill="#E2B698"/><path class="st10" d="M9.6 19.8l-4.7 1.6c-1.7.6-2.9 2.2-2.9 4V29h21v-3.7c0-1.8-1.2-3.4-2.9-4l-4.7-1.6" fill="#91CA60"/><path class="st11" d="M12.4 19.8H9.6l-4.7 1.6c-1.7.6-2.9 2.2-2.9 4v1.1c0-1.3.8-2.5 2-2.9l4-1.3c.6-.2 1.2-.1 1.8.3.1 0 .1.1.2.1.7.4 1.5.4 2.1 0 .8-.5 1.9-1.4 1.9-2.3v-.6h-1.6z" fill="#70BB57"/><path class="st6" d="M17.7 10.8h.3L19 8c.3-1.3-.7-2.5-2-2.5 0-1.5-1.4-2.7-2.9-2.4l-6 1C6.7 4.2 5.8 5.6 6 7l1 3.8h.3" fill="#8A6845"/><path class="st2" d="M17.6 10.8c-.5 0-.9-.4-.9-.9V8.2c0-.4-.4-.6-.7-.3-1.7 1.3-4 1.8-6.1 1.4l-.8-.2c-.5 0-.9.4-.9.9s-.4.9-.9.9H7v1.7c0 3 2.5 5.5 5.5 5.5s5.5-2.5 5.5-5.5v-1.7h-.4z" fill="#F0C9AE"/><path class="st2" d="M9.5 16.3v3.1c0 1.6 2.9 2.9 2.9 2.9s2.9-1.3 2.9-2.9v-3.1H9.5z" fill="#F0C9AE"/><path class="st11" d="M23 29v-3.7c0-.8-.2-1.5-.6-2.2-2.5.3-4.4 2.4-4.4 5v.9h5z" fill="#70BB57"/><path class="st11" d="M2 29v-3.7c0-.8.2-1.5.6-2.2 2.5.3 4.4 2.4 4.4 5v.9H2z" fill="#70BB57"/><path class="st16" d="M4.3 23.7c-.5-.3-1.1-.5-1.7-.5-.4.6-.6 1.3-.6 2.1V29h2v-3.7c0-.5.1-1.1.3-1.6z" fill="#61AF45"/><path class="st7" d="M9.6 4l5.6-.9c-.4-.1-.8-.1-1.1-.1l-6 1C6.7 4.2 5.8 5.6 6 7l1 3.8h1.5L7.5 7c-.2-1.4.7-2.8 2.1-3z" fill="#745539"/><path class="st3" d="M16.8 8c0-.4-.4-.6-.7-.3C14.4 8.9 12.2 9.4 10 9l-.9-.2c-.1 0-.3.1-.4.2l-.3.1v.2c-.1.1-.1.2-.1.4 0 .5-.4.9-.9.9H7v1.9c0 3.1 2.5 5.5 5.5 5.5v.2c.3 0 .6-.3.9-.3-2.7-.4-4.7-2.7-4.7-5.5v-.5c0-.7.6-1.3 1.3-1.2 2.1.4 4.3-.1 6.1-1.4.3-.2.7 0 .7.3V8z" fill="#E2B698"/><path class="st3" d="M11.1 19.3v-2.1H9.5v2.1c0 1.6 2.9 2.9 2.9 2.9s.3-.1.8-.4c-.8-.4-2.1-1.4-2.1-2.5z" fill="#E2B698"/><path class="st30" d="M29 6h-6c-.6 0-1 .4-1 1v4c0 .6.4 1 1 1h1v2l3-2h2c.6 0 1-.4 1-1V7c0-.6-.4-1-1-1z" fill="#FFF"/><path class="st9" d="M29 10.5h-4c-.6 0-1-.4-1-1V6h-1c-.6 0-1 .4-1 1v4c0 .6.4 1 1 1h1v2l3-2h2c.6 0 1-.4 1-1v-.5h-1z" fill="#D5E5F2"/><path class="st15" d="M26 10.5c-.3 0-.5-.2-.5-.5V8c0-.3.2-.5.5-.5s.5.2.5.5v2c0 .3-.2.5-.5.5z" fill="#004463"/><path class="st15" d="M28 10.5c-.3 0-.5-.2-.5-.5V8c0-.3.2-.5.5-.5s.5.2.5.5v2c0 .3-.2.5-.5.5z" fill="#004463"/><path class="st15" d="M24 10.5c-.3 0-.5-.2-.5-.5V8c0-.3.2-.5.5-.5s.5.2.5.5v2c0 .3-.2.5-.5.5z" fill="#004463"/><path class="st15" d="M26 9.5h-2c-.3 0-.5-.2-.5-.5s.2-.5.5-.5h2c.3 0 .5.2.5.5s-.2.5-.5.5z" fill="#004463"/><path class="st15" d="M12.5 22.8h-.2c-.3-.1-3.2-1.5-3.2-3.4v-2.1c0-.3.2-.5.5-.5s.5.2.5.5v2.1c0 1 1.6 2 2.4 2.4.8-.4 2.4-1.4 2.4-2.4v-2.1c0-.3.2-.5.5-.5s.5.2.5.5v2.1c0 1.9-2.9 3.2-3.2 3.4h-.2z" fill="#004463"/><path class="st15" d="M12.5 18.5c-3.3 0-6-2.7-6-6v-1.7c0-.3.2-.5.5-.5s.5.2.5.5v1.7c0 2.8 2.2 5 5 5s5-2.2 5-5v-1.7c0-.3.2-.5.5-.5s.5.2.5.5v1.7c0 3.3-2.7 6-6 6z" fill="#004463"/><path class="st15" d="M18 11.3h-.3c-.3 0-.5-.2-.5-.5s.2-.5.4-.5l.8-2.4c.1-.4 0-.9-.3-1.2S17.4 6 17 6c-.3 0-.5-.2-.5-.5 0-.6-.3-1.2-.7-1.6-.4-.4-1-.5-1.6-.4l-6 1c-.5.1-1 .4-1.3.8-.3.4-.4 1-.3 1.5l.9 3.4c.2 0 .4.2.4.5s-.2.5-.5.5H7c-.2 0-.4-.2-.5-.4L5.5 7c-.2-.8 0-1.6.5-2.3.5-.7 1.2-1.1 2-1.2l6-1c.9-.1 1.7.1 2.4.7.6.5.9 1.2 1 1.9.6.1 1.1.4 1.5.9.5.6.7 1.4.5 2.1l-1 2.8c0 .2-.2.4-.4.4z" fill="#004463"/><path class="st15" d="M17.9 11.3h-.3c-.7 0-1.4-.6-1.4-1.4V8.4c-1.8 1.3-4.2 1.8-6.4 1.4L9 9.6c-.1 0-.3.2-.3.4 0 .7-.6 1.4-1.4 1.4h-.2c-.3 0-.5-.2-.5-.5s.2-.5.5-.5h.3c.2 0 .4-.2.4-.4 0-.7.6-1.4 1.4-1.4l1 .2c2 .4 4.1-.1 5.7-1.3.3-.2.7-.2 1-.1.3.2.5.5.5.8v1.7c0 .2.2.4.4.4h.3c.3 0 .5.2.5.5s-.4.5-.7.5z" fill="#004463"/><path class="st15" d="M23 29.5H2c-.3 0-.5-.2-.5-.5v-3.7c0-2 1.3-3.8 3.2-4.5l4.7-1.6c.3-.1.5.1.6.3.1.3-.1.5-.3.6L5 21.8c-1.5.5-2.5 1.9-2.5 3.5v3.2h20v-3.2c0-1.6-1-3-2.5-3.5l-4.7-1.6c-.3-.1-.4-.4-.3-.6.1-.3.4-.4.6-.3l4.7 1.6c1.9.6 3.2 2.4 3.2 4.5V29c0 .3-.2.5-.5.5z" fill="#004463"/><path class="st15" d="M23 29.5h-5c-.3 0-.5-.2-.5-.5v-.8c0-2.8 2.1-5.2 4.9-5.5.2 0 .4.1.5.2.4.7.7 1.6.7 2.4V29c-.1.3-.3.5-.6.5zm-4.5-1h4v-3.2c0-.5-.1-1.1-.4-1.6-2.1.4-3.7 2.3-3.7 4.5v.3z" fill="#004463"/><path class="st15" d="M7 29.5H2c-.3 0-.5-.2-.5-.5v-3.7c0-.8.2-1.7.7-2.4.1-.2.3-.3.5-.2 2.8.3 4.9 2.7 4.9 5.5v.8c-.1.3-.3.5-.6.5zm-4.5-1h4v-.3c0-2.2-1.6-4-3.7-4.5-.2.5-.4 1.1-.4 1.6v3.2z" fill="#004463"/><path class="st15" d="M7 13.5H6c-.8 0-1.5-.7-1.5-1.5v-1c0-.8.7-1.5 1.5-1.5h.5c.3 0 .5.2.5.5s-.2.5-.5.5H6c-.3 0-.5.2-.5.5v1c0 .3.2.5.5.5h1c.3 0 .5.2.5.5s-.2.5-.5.5z" fill="#004463"/><path class="st15" d="M19 13.5h-1c-.3 0-.5-.2-.5-.5s.2-.5.5-.5h1c.3 0 .5-.2.5-.5v-1c0-.3-.2-.5-.5-.5h-.5c-.3 0-.5-.2-.5-.5s.2-.5.5-.5h.5c.8 0 1.5.7 1.5 1.5v1c0 .8-.7 1.5-1.5 1.5z" fill="#004463"/><g><path class="st15" d="M24 14.5c-.1 0-.2 0-.2-.1-.2-.1-.3-.3-.3-.4v-1.5H23c-.8 0-1.5-.7-1.5-1.5V7c0-.8.7-1.5 1.5-1.5h6c.8 0 1.5.7 1.5 1.5v4c0 .8-.7 1.5-1.5 1.5h-1.8l-2.9 1.9c-.1.1-.2.1-.3.1zm-1-8c-.3 0-.5.2-.5.5v4c0 .3.2.5.5.5h1c.3 0 .5.2.5.5v1.1l2.2-1.5c.1-.1.2-.1.3-.1h2c.3 0 .5-.2.5-.5V7c0-.3-.2-.5-.5-.5h-6z" fill="#004463"/></g><metadata><rdf:RDF xmlns:rdf="http://www.w3.org/1999/02/22-rdf-syntax-ns#" xmlns:rdfs="http://www.w3.org/2000/01/rdf-schema#" xmlns:dc="http://purl.org/dc/elements/1.1/"><rdf:Description about="https://iconscout.com/legal#licenses" dc:title="customer,communication,message,chat,support" dc:description="customer,communication,message,chat,support" dc:publisher="Iconscout" dc:date="2017-09-07" dc:format="image/svg+xml" dc:language="en"><dc:creator><rdf:Bag><rdf:li>Jemis Mali</rdf:li></rdf:Bag></dc:creator></rdf:Description></rdf:RDF></metadata></svg>