<?xml version="1.0" encoding="UTF-8"?><!DOCTYPE svg PUBLIC "-//W3C//DTD SVG 1.1//EN" "http://www.w3.org/Graphics/SVG/1.1/DTD/svg11.dtd"><svg xmlns="http://www.w3.org/2000/svg" xmlns:xlink="http://www.w3.org/1999/xlink" version="1.1" id="magnifier-eye" x="0px" y="0px" viewBox="0 0 1010.0015 947.8594" xml:space="preserve"><path fill="#CCC" d="M248.358 653.339l59.738 67.613 141.126-124.585-59.672-67.612z"/><path fill="#4D4D4D" d="M308.096 732.373a11.376 11.376 0 0 1-8.555-3.86l-59.738-67.612a11.418 11.418 0 0 1-2.844-8.276 11.458 11.458 0 0 1 3.837-7.852l141.192-124.585c4.73-4.16 11.945-3.713 16.128 1.004l59.671 67.613c4.172 4.73 3.726 11.945-1.003 16.128L315.658 729.518a11.386 11.386 0 0 1-7.562 2.855zm-43.61-78.03l44.614 50.492 124.005-109.472-44.559-50.492-124.06 109.472z"/><path fill="#5FD4AF" d="M11.424 811.607l110.185 124.83 260.636-230.03-110.242-124.83z"/><path fill="#4D4D4D" d="M121.61 947.86a11.42 11.42 0 0 1-8.567-3.86L2.858 819.17c-4.172-4.73-3.725-11.945 1.004-16.128l260.58-230.03c4.728-4.172 11.945-3.726 16.127 1.004l110.241 124.83a11.457 11.457 0 0 1 2.833 8.275 11.456 11.456 0 0 1-3.836 7.853L129.17 945.004a11.39 11.39 0 0 1-7.562 2.855zM27.54 812.61l95.073 107.71 243.504-214.917-95.118-107.71L27.54 812.611z"/><g><path fill="#FF9554" d="M432.982 96.512c-140.903 124.383-154.276 339.49-29.891 480.403 124.395 140.892 339.48 154.275 480.347 29.892 140.937-124.395 154.343-339.447 29.893-480.27-124.385-140.88-339.491-154.32-480.35-30.025z"/><path fill="#4D4D4D" d="M658.361 703.419h-.01c-100.918 0-197.083-43.355-263.826-118.941C266.159 439.047 280.023 216.312 425.42 87.945 489.698 31.23 572.29 0 657.96 0c100.972 0 197.172 43.365 263.936 118.975 62.204 70.39 93.244 160.8 87.41 254.567-5.844 93.757-47.86 179.639-118.305 241.831-64.31 56.771-146.936 88.046-232.64 88.046zm-.401-680.576c-80.106 0-157.32 29.199-217.416 82.234-135.961 120.024-148.922 328.293-28.887 464.276 62.403 70.68 152.322 111.223 246.704 111.223 80.138 0 157.388-29.233 217.516-82.335 65.884-58.143 105.167-138.449 110.632-226.115 5.454-87.678-23.568-172.21-81.733-238.027C842.34 63.386 752.386 22.843 657.96 22.843z"/></g><g><path fill="#FFF" d="M476.124 145.386C362.19 245.935 351.416 419.84 451.932 533.818c100.56 113.877 274.488 124.697 388.41 24.136 113.922-100.582 124.74-274.466 24.18-388.343C763.918 55.734 590.057 44.85 476.124 145.386z"/><path fill="#4D4D4D" d="M658.327 638.26h-.021c-82.236-.011-160.578-35.323-214.94-96.88-104.542-118.55-93.243-300.03 25.196-404.56C520.96 90.59 588.25 65.137 658.06 65.137c82.235 0 160.61 35.323 215.017 96.912 50.66 57.363 75.944 131.032 71.182 207.433-4.751 76.391-38.971 146.368-96.356 197.038-52.41 46.254-119.744 71.74-189.576 71.74zm-.268-550.282c-64.232 0-126.168 23.423-174.373 65.974-109.004 96.188-119.399 263.212-23.189 372.316 50.024 56.648 122.132 89.138 197.82 89.149h.01c64.268 0 126.225-23.444 174.453-66.028 52.812-46.622 84.309-111.023 88.682-181.334 4.383-70.301-18.883-138.092-65.506-190.881-50.067-56.683-122.209-89.196-197.897-89.196z"/></g><g><path fill="#FFF" d="M826.847 366.46s-32.48-102.166-167.17-102.166c-143.925 0-162.562 116.085-162.562 116.085"/><path fill="#4D4D4D" d="M497.126 391.8a11.17 11.17 0 0 1-1.818-.145c-6.235-1.004-10.473-6.86-9.47-13.083.201-1.26 21.94-125.7 173.839-125.7 141.404 0 177.698 109.026 178.054 110.13 1.909 5.99-1.404 12.392-7.394 14.31-5.979 1.986-12.414-1.36-14.365-7.36-1.25-3.85-32.067-94.237-156.295-94.237-132.67 0-150.583 102.133-151.286 106.471-.904 5.622-5.755 9.615-11.265 9.615z"/><path fill="#FFF" d="M794.367 412.925s-134.69 27.806-255.438 0"/><path fill="#4D4D4D" d="M659.253 436.794c-38.613 0-81.387-3.179-122.889-12.737-6.146-1.417-9.982-7.551-8.566-13.697 1.416-6.145 7.473-10.005 13.697-8.566 116.81 26.925 249.225.212 250.563-.056 6.146-1.204 12.224 2.689 13.496 8.878 1.271 6.18-2.7 12.225-8.878 13.496-3.693.76-62.728 12.682-137.423 12.682z"/><path fill="#5FD4AF" d="M589.968 347.889c0 38.424 31.207 69.665 69.687 69.665 38.502 0 69.664-31.24 69.664-69.665 0-38.501-31.162-69.72-69.664-69.72-38.48 0-69.687 31.219-69.687 69.72z"/><path fill="#4D4D4D" d="M659.655 428.976c-44.726 0-81.11-36.373-81.11-81.087 0-44.737 36.384-81.142 81.11-81.142 44.714 0 81.086 36.405 81.086 81.142 0 44.714-36.372 81.087-81.086 81.087zm0-139.386c-32.134 0-58.265 26.155-58.265 58.299 0 32.111 26.131 58.244 58.265 58.244 32.112 0 58.243-26.133 58.243-58.244 0-32.144-26.132-58.3-58.243-58.3z"/><path fill="#FFF" d="M794.367 310.692l46.442-37.13"/><path fill="#4D4D4D" d="M794.378 322.113a11.4 11.4 0 0 1-8.934-4.294c-3.937-4.919-3.134-12.112 1.795-16.05l46.443-37.13c4.909-3.937 12.125-3.122 16.051 1.796 3.938 4.918 3.134 12.113-1.796 16.05l-46.443 37.13a11.333 11.333 0 0 1-7.116 2.498z"/><g><path fill="#FFF" d="M715.4 264.294l13.92-46.433"/><path fill="#4D4D4D" d="M715.4 275.715c-1.082 0-2.186-.156-3.279-.48-6.046-1.818-9.47-8.175-7.663-14.22l13.92-46.433c1.806-6.045 8.142-9.446 14.22-7.662 6.045 1.818 9.47 8.176 7.663 14.22l-13.92 46.432c-1.483 4.952-6.022 8.143-10.94 8.143z"/></g><g><path fill="#FFF" d="M603.954 268.934l-18.582-51.073"/><path fill="#4D4D4D" d="M603.954 280.354c-4.662 0-9.045-2.877-10.73-7.517l-18.58-51.071c-2.165-5.923.891-12.482 6.825-14.634 5.89-2.142 12.481.903 14.633 6.826l18.582 51.071c2.164 5.923-.892 12.482-6.826 14.634-1.283.469-2.61.691-3.904.691z"/></g><g><path fill="#FFF" d="M515.752 320.027l-46.499-32.523"/><path fill="#4D4D4D" d="M515.741 331.45c-2.264 0-4.54-.67-6.536-2.064l-46.499-32.524c-5.164-3.614-6.424-10.73-2.81-15.905 3.602-5.186 10.729-6.436 15.904-2.81l46.5 32.523c5.163 3.613 6.424 10.73 2.81 15.905-2.22 3.179-5.766 4.874-9.369 4.874z"/></g><path fill="#4D4D4D" d="M634.96 346.763c0 13.875 11.244 25.14 25.097 25.14 13.897 0 25.14-11.265 25.14-25.14 0-13.908-11.243-25.162-25.14-25.162-13.853 0-25.096 11.253-25.096 25.162z"/></g><metadata><rdf:RDF xmlns:rdf="http://www.w3.org/1999/02/22-rdf-syntax-ns#" xmlns:rdfs="http://www.w3.org/2000/01/rdf-schema#" xmlns:dc="http://purl.org/dc/elements/1.1/"><rdf:Description about="https://iconscout.com/legal#licenses" dc:title="magnifier,eye" dc:description="magnifier,eye" dc:publisher="Iconscout" dc:date="2017-09-21" dc:format="image/svg+xml" dc:language="en"><dc:creator><rdf:Bag><rdf:li>Vecteezy</rdf:li></rdf:Bag></dc:creator></rdf:Description></rdf:RDF></metadata></svg>