<?xml version="1.0" encoding="UTF-8"?><svg xmlns="http://www.w3.org/2000/svg" xmlns:xlink="http://www.w3.org/1999/xlink" version="1.1" id="Layer_1" x="0px" y="0px" viewBox="0 0 32 32" xml:space="preserve"><style type="text/css">.st0{fill:#01A6FF;} .st1{fill:#006EF4;} .st2{fill:#F0C9AE;} .st3{fill:#E2B698;} .st4{fill:#ED5C23;} .st5{fill:#F47321;} .st6{fill:#8A6845;} .st7{fill:#745539;} .st8{fill:#EEF2FA;} .st9{fill:#D5E5F2;} .st10{fill:#91CA60;} .st11{fill:#70BB57;} .st12{fill:#AE89BF;} .st13{fill:#9675B4;} .st14{fill:#8D6DAF;} .st15{fill:#004463;} .st16{fill:#61AF45;} .st17{fill:#607D95;} .st18{fill:#4B6C85;} .st19{fill:#90CFF1;} .st20{fill:#70B7E6;} .st21{fill:#B0C4DA;} .st22{fill:#99B5CE;} .st23{fill:#FECB5B;} .st24{fill:#F8B545;} .st25{fill:#EA9F32;} .st26{fill:#014CB1;} .st27{fill:#40657C;} .st28{fill:#B285BB;} .st29{fill:#9768AB;} .st30{fill:#FFFFFF;} .st31{fill:#EF4A4C;} .st32{fill:none;stroke:#4F5266;stroke-linecap:round;stroke-linejoin:round;stroke-miterlimit:10;} .st33{fill:#4F5266;} .st34{fill:#606060;} .st35{fill:none;stroke:#4F5266;stroke-miterlimit:10;} .st36{fill:#4F5266;stroke:#4F5266;stroke-miterlimit:10;} .st37{fill:#67ACD5;} .st38{fill:none;stroke:#40455A;stroke-linecap:round;stroke-linejoin:round;stroke-miterlimit:10;} .st39{fill:#B58C66;} .st40{fill:#362B5B;} .st41{fill:#FF527B;} .st42{fill:#E4E8EA;} .st43{fill:#AFABB2;} .st44{fill:#66AAD3;} .st45{fill:#5890CC;} .st46{fill:#FFD986;} .st47{fill:#5B5D70;} .st48{fill:none;stroke:#40455A;stroke-miterlimit:10;} .st49{fill:#FFDA87;} .st50{fill:#F7A053;} .st51{fill:#FF9E68;} .st52{fill:#E67144;} .st53{fill:#C06200;} .st54{fill:#E0313F;} .st55{fill:#898B99;} .st56{fill:#D1283D;} .st57{fill:#E55123;} .st58{fill:#516D97;} .st59{fill:#5C5E70;} .st60{fill:#CAA9CF;} .st61{fill:none;stroke:#004463;stroke-linecap:round;stroke-linejoin:round;stroke-miterlimit:10;} .st62{fill:#3C3B41;} .st63{fill:#E9DCEC;} .st64{fill:#C9CEC4;} .st65{fill:#8D5AA3;} .st66{fill:none;stroke:#8D5AA3;stroke-linecap:round;stroke-linejoin:round;stroke-miterlimit:10;} .st67{fill:#FF5345;} .st68{fill:#A3D86B;} .st69{fill:#5791D1;} .st70{fill:#A17852;} .st71{fill:#FED8AA;} .st72{fill:#5A5D70;} .st73{fill:#A95D8A;} .st74{fill:#814F80;} .st75{fill:#DB3A3A;} .st76{fill:#64BC50;} .st77{fill:#FED8AA;stroke:#40455A;stroke-linecap:round;stroke-linejoin:round;stroke-miterlimit:10;} .st78{fill:#EA3F3B;} .st79{fill:#E37A49;} .st80{fill:#C15C49;} .st81{fill:#A17852;stroke:#40455A;stroke-miterlimit:10;} .st82{fill:#A2E2FF;} .st83{fill:#FED8AA;stroke:#40455A;stroke-miterlimit:10;} .st84{fill:#5C5E70;stroke:#40455A;stroke-miterlimit:10;} .st85{fill:#4F5266;stroke:#40455A;stroke-miterlimit:10;} .st86{fill:#787882;stroke:#40455A;stroke-miterlimit:10;} .st87{fill:#40455A;} .st88{fill:#E67401;} .st89{fill:#2A292E;} .st90{fill:#17161B;} .st91{fill:#00459D;}</style><path class="st19" d="M26.5 22h-21c-.6 0-1-.4-1-1V7c0-.6.4-1 1-1h21c.6 0 1 .4 1 1v14c0 .5-.4 1-1 1z" fill="#90CFF1"/><path class="st20" d="M26.5 17h-15c-2.8 0-5-2.2-5-5V7c0-.6.4-1 1-1h-2c-.6 0-1 .4-1 1v12h23v-3c0 .5-.4 1-1 1z" fill="#70B7E6"/><path class="st10" d="M24.5 17h-7c-.6 0-1-.4-1-1v-1c0-.6.4-1 1-1h7c.6 0 1 .4 1 1v1c0 .5-.4 1-1 1z" fill="#91CA60"/><path class="st11" d="M18 15.5V14h-.5c-.6 0-1 .4-1 1v1c0 .6.4 1 1 1h7c.6 0 1-.4 1-1h-7c-.3 0-.5-.2-.5-.5z" fill="#70BB57"/><path class="st2" d="M14 12.6v-2.1H7v3c0 1.9 1.6 3.5 3.5 3.5 1.8 0 3.2-1.3 3.5-3.1v-1.3z" fill="#F0C9AE"/><path class="st3" d="M8.5 13.5v-3H7v3c0 1.9 1.6 3.5 3.5 3.5.3 0 .5 0 .7-.1-1.5-.3-2.7-1.7-2.7-3.4z" fill="#E2B698"/><path class="st6" d="M14 12.7l.5-1.7c.2-.8-.4-1.5-1.2-1.5 0-.9-.8-1.7-1.8-1.5l-3.7.6c-.9.1-1.4 1-1.3 1.8l.5 2.3 1.3-1c.2-.1.4-.2.6-.2h3.2c.2 0 .4.1.6.2l1.3 1z" fill="#8A6845"/><path class="st7" d="M8 10.4c-.1-.9.4-1.7 1.3-1.8l3-.5c-.2-.1-.5-.2-.8-.1l-3.7.6c-.9.1-1.4 1-1.3 1.8l.5 2.3 1.3-1-.3-1.3z" fill="#745539"/><path class="st8" fill="#EEF2FA" d="M13.5 22h5v4h-5z"/><path class="st9" d="M16 23.5h2.5V22h-5v4H15v-1.5c0-.6.4-1 1-1z" fill="#D5E5F2"/><path class="st17" d="M4.5 21c0 .6.4 1 1 1h21c.6 0 1-.4 1-1v-2h-23v2z" fill="#607D95"/><path class="st18" d="M6.5 21v-2h-2v2c0 .6.4 1 1 1h2c-.6 0-1-.5-1-1z" fill="#4B6C85"/><path class="st15" d="M26.5 22.5h-21c-.8 0-1.5-.7-1.5-1.5V7c0-.8.7-1.5 1.5-1.5h21c.8 0 1.5.7 1.5 1.5v14c0 .8-.7 1.5-1.5 1.5zm-21-16c-.3 0-.5.2-.5.5v14c0 .3.2.5.5.5h21c.3 0 .5-.2.5-.5V7c0-.3-.2-.5-.5-.5h-21z" fill="#004463"/><path class="st15" d="M22.5 26.5h-13c-.3 0-.5-.2-.5-.5s.2-.5.5-.5h13c.3 0 .5.2.5.5s-.2.5-.5.5z" fill="#004463"/><path class="st15" d="M27.5 19.5h-23c-.3 0-.5-.2-.5-.5s.2-.5.5-.5h23c.3 0 .5.2.5.5s-.2.5-.5.5z" fill="#004463"/><path class="st15" d="M25.5 8.5h-7c-.3 0-.5-.2-.5-.5s.2-.5.5-.5h7c.3 0 .5.2.5.5s-.2.5-.5.5z" fill="#004463"/><path class="st15" d="M25.5 10.5h-7c-.3 0-.5-.2-.5-.5s.2-.5.5-.5h7c.3 0 .5.2.5.5s-.2.5-.5.5z" fill="#004463"/><path class="st15" d="M18.5 26.5h-5c-.3 0-.5-.2-.5-.5v-4c0-.3.2-.5.5-.5h5c.3 0 .5.2.5.5v4c0 .3-.2.5-.5.5zm-4.5-1h4v-3h-4v3z" fill="#004463"/><path class="st15" d="M10.5 17.5c-2.2 0-4-1.8-4-4v-1c0-.3.2-.5.5-.5s.5.2.5.5v1c0 1.7 1.3 3 3 3s3-1.3 3-3v-1c0-.3.2-.5.5-.5s.5.2.5.5v1c0 2.2-1.8 4-4 4z" fill="#004463"/><path class="st15" d="M7 13.2h-.2c-.2-.1-.3-.2-.3-.4L6 10.5c-.1-.6 0-1.1.3-1.6s.8-.8 1.3-.8l3.7-.6c.7-.1 1.3 0 1.7.4.4.3.6.7.7 1.1.4.1.7.3.9.6.3.4.5 1 .4 1.5l-.5 1.7c0 .2-.2.3-.3.3-.2 0-.3 0-.5-.1l-1.3-1c-.1-.1-.2-.1-.3-.1H8.9c-.1 0-.2 0-.3.1l-1.3 1c-.1.2-.2.2-.3.2zM8.9 11h3.2c.3 0 .7.1.9.3l.7.6.3-1c0-.2 0-.4-.2-.6s-.3-.3-.6-.3-.5-.2-.5-.5-.1-.6-.4-.8c-.2-.2-.5-.3-.8-.2l-3.6.6c-.3 0-.5.2-.7.4-.2.2-.2.5-.2.8l.3 1.6.7-.6c.3-.2.6-.3.9-.3z" fill="#004463"/><path class="st15" d="M12.5 15.6H11c-.3 0-.5-.2-.5-.5s.2-.5.5-.5h1.5c.6 0 1-.4 1-1v-1c0-.3.2-.5.5-.5s.5.2.5.5v1c0 1.1-.9 2-2 2z" fill="#004463"/><circle class="st15" cx="16.5" cy="8" r="0.5" fill="#004463"/><circle class="st15" cx="16.5" cy="10" r="0.5" fill="#004463"/><path class="st15" d="M25.5 12.5h-7c-.3 0-.5-.2-.5-.5s.2-.5.5-.5h7c.3 0 .5.2.5.5s-.2.5-.5.5z" fill="#004463"/><circle class="st15" cx="16.5" cy="12" r="0.5" fill="#004463"/><path class="st15" d="M24.5 17.5h-7c-.8 0-1.5-.7-1.5-1.5v-1c0-.8.7-1.5 1.5-1.5h7c.8 0 1.5.7 1.5 1.5v1c0 .8-.7 1.5-1.5 1.5zm-7-3c-.3 0-.5.2-.5.5v1c0 .3.2.5.5.5h7c.3 0 .5-.2.5-.5v-1c0-.3-.2-.5-.5-.5h-7z" fill="#004463"/><metadata><rdf:RDF xmlns:rdf="http://www.w3.org/1999/02/22-rdf-syntax-ns#" xmlns:rdfs="http://www.w3.org/2000/01/rdf-schema#" xmlns:dc="http://purl.org/dc/elements/1.1/"><rdf:Description about="https://iconscout.com/legal#licenses" dc:title="website,help,support,customer,care" dc:description="website,help,support,customer,care" dc:publisher="Iconscout" dc:date="2017-09-07" dc:format="image/svg+xml" dc:language="en"><dc:creator><rdf:Bag><rdf:li>Jemis Mali</rdf:li></rdf:Bag></dc:creator></rdf:Description></rdf:RDF></metadata></svg>