<?xml version="1.0" encoding="UTF-8"?><svg xmlns="http://www.w3.org/2000/svg" xmlns:xlink="http://www.w3.org/1999/xlink" version="1.1" id="Layer_1" x="0px" y="0px" viewBox="0 0 32 32" xml:space="preserve"><style type="text/css">.st0{fill:#01A6FF;} .st1{fill:#006EF4;} .st2{fill:#F0C9AE;} .st3{fill:#E2B698;} .st4{fill:#ED5C23;} .st5{fill:#F47321;} .st6{fill:#8A6845;} .st7{fill:#745539;} .st8{fill:#EEF2FA;} .st9{fill:#D5E5F2;} .st10{fill:#91CA60;} .st11{fill:#70BB57;} .st12{fill:#AE89BF;} .st13{fill:#9675B4;} .st14{fill:#8D6DAF;} .st15{fill:#004463;} .st16{fill:#61AF45;} .st17{fill:#607D95;} .st18{fill:#4B6C85;} .st19{fill:#90CFF1;} .st20{fill:#70B7E6;} .st21{fill:#B0C4DA;} .st22{fill:#99B5CE;} .st23{fill:#FECB5B;} .st24{fill:#F8B545;} .st25{fill:#EA9F32;} .st26{fill:#014CB1;} .st27{fill:#40657C;} .st28{fill:#B285BB;} .st29{fill:#9768AB;} .st30{fill:#FFFFFF;} .st31{fill:#EF4A4C;} .st32{fill:none;stroke:#4F5266;stroke-linecap:round;stroke-linejoin:round;stroke-miterlimit:10;} .st33{fill:#4F5266;} .st34{fill:#606060;} .st35{fill:none;stroke:#4F5266;stroke-miterlimit:10;} .st36{fill:#4F5266;stroke:#4F5266;stroke-miterlimit:10;} .st37{fill:#67ACD5;} .st38{fill:none;stroke:#40455A;stroke-linecap:round;stroke-linejoin:round;stroke-miterlimit:10;} .st39{fill:#B58C66;} .st40{fill:#362B5B;} .st41{fill:#FF527B;} .st42{fill:#E4E8EA;} .st43{fill:#AFABB2;} .st44{fill:#66AAD3;} .st45{fill:#5890CC;} .st46{fill:#FFD986;} .st47{fill:#5B5D70;} .st48{fill:none;stroke:#40455A;stroke-miterlimit:10;} .st49{fill:#FFDA87;} .st50{fill:#F7A053;} .st51{fill:#FF9E68;} .st52{fill:#E67144;} .st53{fill:#C06200;} .st54{fill:#E0313F;} .st55{fill:#898B99;} .st56{fill:#D1283D;} .st57{fill:#E55123;} .st58{fill:#516D97;} .st59{fill:#5C5E70;} .st60{fill:#CAA9CF;} .st61{fill:none;stroke:#004463;stroke-linecap:round;stroke-linejoin:round;stroke-miterlimit:10;} .st62{fill:#3C3B41;} .st63{fill:#E9DCEC;} .st64{fill:#C9CEC4;} .st65{fill:#8D5AA3;} .st66{fill:none;stroke:#8D5AA3;stroke-linecap:round;stroke-linejoin:round;stroke-miterlimit:10;} .st67{fill:#FF5345;} .st68{fill:#A3D86B;} .st69{fill:#5791D1;} .st70{fill:#A17852;} .st71{fill:#FED8AA;} .st72{fill:#5A5D70;} .st73{fill:#A95D8A;} .st74{fill:#814F80;} .st75{fill:#DB3A3A;} .st76{fill:#64BC50;} .st77{fill:#FED8AA;stroke:#40455A;stroke-linecap:round;stroke-linejoin:round;stroke-miterlimit:10;} .st78{fill:#EA3F3B;} .st79{fill:#E37A49;} .st80{fill:#C15C49;} .st81{fill:#A17852;stroke:#40455A;stroke-miterlimit:10;} .st82{fill:#A2E2FF;} .st83{fill:#FED8AA;stroke:#40455A;stroke-miterlimit:10;} .st84{fill:#5C5E70;stroke:#40455A;stroke-miterlimit:10;} .st85{fill:#4F5266;stroke:#40455A;stroke-miterlimit:10;} .st86{fill:#787882;stroke:#40455A;stroke-miterlimit:10;} .st87{fill:#40455A;} .st88{fill:#E67401;} .st89{fill:#2A292E;} .st90{fill:#17161B;} .st91{fill:#00459D;}</style><path class="st10" d="M15 10.5h12c1.1 0 2 .9 2 2v7c0 1.1-.9 2-2 2h-1v3l-4-3h-7c-1.1 0-2-.9-2-2v-7c0-1.1.9-2 2-2z" fill="#91CA60"/><path class="st11" d="M21.6 19.5h-4.7c-1.1 0-2-.9-2-2l.1-2v-3c0-1.1.9-2 2-2h-2c-1.1 0-2 .9-2 2v7c0 1.1.9 2 2 2h7l4 3-.1-2-2-1.5-1.7-1.3c-.2-.1-.4-.2-.6-.2z" fill="#70BB57"/><path class="st11" d="M27 19.5c-.6 0-1 .4-1 1v1h1c1.1 0 2-.9 2-2v-2c0 1.1-.9 2-2 2z" fill="#70BB57"/><path class="st31" d="M13 12.5c0-1.1.9-2 2-2h3v-1c0-1.1-.9-2-2-2H4c-1.1 0-2 .9-2 2v7c0 1.1.9 2 2 2h1v3l4-3h4v-6z" fill="#EF4A4C"/><path class="st54" d="M16 7.5V8c0 .5-.5 1-1 1h-1c-1.7 0-3 1.3-3 3v3.5c0 .6-.4 1-1 1h-.3c-.4 0-.9.1-1.2.4L5 19.5v2l4-3h4v-6c0-1.1.9-2 2-2h3v-1c0-1.1-.9-2-2-2z" fill="#E0313F"/><path class="st15" d="M26 25c-.1 0-.2 0-.3-.1L21.8 22H15c-1.4 0-2.5-1.1-2.5-2.5v-7c0-1.4 1.1-2.5 2.5-2.5h12c1.4 0 2.5 1.1 2.5 2.5v7c0 1.4-1.1 2.5-2.5 2.5h-.5v2.5c0 .2-.1.4-.3.4-.1.1-.1.1-.2.1zM15 11c-.8 0-1.5.7-1.5 1.5v7c0 .8.7 1.5 1.5 1.5h7c.1 0 .2 0 .3.1l3.2 2.4v-2c0-.3.2-.5.5-.5h1c.8 0 1.5-.7 1.5-1.5v-7c0-.8-.7-1.5-1.5-1.5H15z" fill="#004463"/><path class="st15" d="M26 25c-.1 0-.2 0-.3-.1L21.8 22H15c-1.4 0-2.5-1.1-2.5-2.5v-7c0-1.4 1.1-2.5 2.5-2.5h12c1.4 0 2.5 1.1 2.5 2.5v7c0 1.4-1.1 2.5-2.5 2.5h-.5v2.5c0 .2-.1.4-.3.4-.1.1-.1.1-.2.1zM15 11c-.8 0-1.5.7-1.5 1.5v7c0 .8.7 1.5 1.5 1.5h7c.1 0 .2 0 .3.1l3.2 2.4v-2c0-.3.2-.5.5-.5h1c.8 0 1.5-.7 1.5-1.5v-7c0-.8-.7-1.5-1.5-1.5H15z" fill="#004463"/><path class="st15" d="M5 22c-.1 0-.2 0-.2-.1-.2-.1-.3-.3-.3-.4V19H4c-1.4 0-2.5-1.1-2.5-2.5v-7C1.5 8.1 2.6 7 4 7h12c1.4 0 2.5 1.1 2.5 2.5v1c0 .3-.2.5-.5.5h-3c-.8 0-1.5.7-1.5 1.5v6c0 .3-.2.5-.5.5H9.2l-3.9 2.9c-.1.1-.2.1-.3.1zM4 8c-.8 0-1.5.7-1.5 1.5v7c0 .8.7 1.5 1.5 1.5h1c.3 0 .5.2.5.5v2l3.2-2.4c.1-.1.2-.1.3-.1h3.5v-5.5c0-1.4 1.1-2.5 2.5-2.5h2.5v-.5c0-.8-.7-1.5-1.5-1.5H4z" fill="#004463"/><path class="st15" d="M9 16H8c-.8 0-1.5-.7-1.5-1.5v-3c0-.8.7-1.5 1.5-1.5h1c.8 0 1.5.7 1.5 1.5v3c0 .8-.7 1.5-1.5 1.5zm-1-5c-.3 0-.5.2-.5.5v3c0 .3.2.5.5.5h1c.3 0 .5-.2.5-.5v-3c0-.3-.2-.5-.5-.5H8z" fill="#004463"/><path class="st15" d="M23 19c-.3 0-.5-.2-.5-.5v-4c0-.3-.2-.5-.5-.5h-2c-.3 0-.5.2-.5.5v4c0 .3-.2.5-.5.5s-.5-.2-.5-.5v-4c0-.8.7-1.5 1.5-1.5h2c.8 0 1.5.7 1.5 1.5v4c0 .3-.2.5-.5.5z" fill="#004463"/><path class="st15" d="M22.5 17h-3c-.3 0-.5-.2-.5-.5s.2-.5.5-.5h3c.3 0 .5.2.5.5s-.2.5-.5.5z" fill="#004463"/><path class="st15" d="M11 16c-.1 0-.3 0-.4-.1l-2-2c-.2-.2-.2-.5 0-.7s.5-.2.7 0l2 2c.2.2.2.5 0 .7 0 0-.2.1-.3.1z" fill="#004463"/><metadata><rdf:RDF xmlns:rdf="http://www.w3.org/1999/02/22-rdf-syntax-ns#" xmlns:rdfs="http://www.w3.org/2000/01/rdf-schema#" xmlns:dc="http://purl.org/dc/elements/1.1/"><rdf:Description about="https://iconscout.com/legal#licenses" dc:title="question,answer,questionnaire,conversation,support,help" dc:description="question,answer,questionnaire,conversation,support,help" dc:publisher="Iconscout" dc:date="2017-09-07" dc:format="image/svg+xml" dc:language="en"><dc:creator><rdf:Bag><rdf:li>Jemis Mali</rdf:li></rdf:Bag></dc:creator></rdf:Description></rdf:RDF></metadata></svg>