<?xml version="1.0" encoding="UTF-8"?><svg xmlns="http://www.w3.org/2000/svg" xmlns:xlink="http://www.w3.org/1999/xlink" version="1.1" id="Layer_1" x="0px" y="0px" viewBox="0 0 32 32" xml:space="preserve"><style type="text/css">.st0{fill:#01A6FF;} .st1{fill:#006EF4;} .st2{fill:#F0C9AE;} .st3{fill:#E2B698;} .st4{fill:#ED5C23;} .st5{fill:#F47321;} .st6{fill:#8A6845;} .st7{fill:#745539;} .st8{fill:#EEF2FA;} .st9{fill:#D5E5F2;} .st10{fill:#91CA60;} .st11{fill:#70BB57;} .st12{fill:#AE89BF;} .st13{fill:#9675B4;} .st14{fill:#8D6DAF;} .st15{fill:#004463;} .st16{fill:#61AF45;} .st17{fill:#607D95;} .st18{fill:#4B6C85;} .st19{fill:#90CFF1;} .st20{fill:#70B7E6;} .st21{fill:#B0C4DA;} .st22{fill:#99B5CE;} .st23{fill:#FECB5B;} .st24{fill:#F8B545;} .st25{fill:#EA9F32;} .st26{fill:#014CB1;} .st27{fill:#40657C;} .st28{fill:#B285BB;} .st29{fill:#9768AB;} .st30{fill:#FFFFFF;} .st31{fill:#EF4A4C;} .st32{fill:none;stroke:#4F5266;stroke-linecap:round;stroke-linejoin:round;stroke-miterlimit:10;} .st33{fill:#4F5266;} .st34{fill:#606060;} .st35{fill:none;stroke:#4F5266;stroke-miterlimit:10;} .st36{fill:#4F5266;stroke:#4F5266;stroke-miterlimit:10;} .st37{fill:#67ACD5;} .st38{fill:none;stroke:#40455A;stroke-linecap:round;stroke-linejoin:round;stroke-miterlimit:10;} .st39{fill:#B58C66;} .st40{fill:#362B5B;} .st41{fill:#FF527B;} .st42{fill:#E4E8EA;} .st43{fill:#AFABB2;} .st44{fill:#66AAD3;} .st45{fill:#5890CC;} .st46{fill:#FFD986;} .st47{fill:#5B5D70;} .st48{fill:none;stroke:#40455A;stroke-miterlimit:10;} .st49{fill:#FFDA87;} .st50{fill:#F7A053;} .st51{fill:#FF9E68;} .st52{fill:#E67144;} .st53{fill:#C06200;} .st54{fill:#E0313F;} .st55{fill:#898B99;} .st56{fill:#D1283D;} .st57{fill:#E55123;} .st58{fill:#516D97;} .st59{fill:#5C5E70;} .st60{fill:#CAA9CF;} .st61{fill:none;stroke:#004463;stroke-linecap:round;stroke-linejoin:round;stroke-miterlimit:10;} .st62{fill:#3C3B41;} .st63{fill:#E9DCEC;} .st64{fill:#C9CEC4;} .st65{fill:#8D5AA3;} .st66{fill:none;stroke:#8D5AA3;stroke-linecap:round;stroke-linejoin:round;stroke-miterlimit:10;} .st67{fill:#FF5345;} .st68{fill:#A3D86B;} .st69{fill:#5791D1;} .st70{fill:#A17852;} .st71{fill:#FED8AA;} .st72{fill:#5A5D70;} .st73{fill:#A95D8A;} .st74{fill:#814F80;} .st75{fill:#DB3A3A;} .st76{fill:#64BC50;} .st77{fill:#FED8AA;stroke:#40455A;stroke-linecap:round;stroke-linejoin:round;stroke-miterlimit:10;} .st78{fill:#EA3F3B;} .st79{fill:#E37A49;} .st80{fill:#C15C49;} .st81{fill:#A17852;stroke:#40455A;stroke-miterlimit:10;} .st82{fill:#A2E2FF;} .st83{fill:#FED8AA;stroke:#40455A;stroke-miterlimit:10;} .st84{fill:#5C5E70;stroke:#40455A;stroke-miterlimit:10;} .st85{fill:#4F5266;stroke:#40455A;stroke-miterlimit:10;} .st86{fill:#787882;stroke:#40455A;stroke-miterlimit:10;} .st87{fill:#40455A;} .st88{fill:#E67401;} .st89{fill:#2A292E;} .st90{fill:#17161B;} .st91{fill:#00459D;}</style><path class="st5" d="M20.5 3.5h5c1.1 0 2 .9 2 2v24c0 1.1-.9 2-2 2h-19c-1.1 0-2-.9-2-2v-24c0-1.1.9-2 2-2h5" fill="#F47321"/><path class="st53" d="M7.5 27.5v-24h-1c-1.1 0-2 .9-2 2v24c0 1.1.9 2 2 2h19c1.1 0 2-.9 2-2h-18c-1.1 0-2-.9-2-2z" fill="#C06200"/><path class="st8" fill="#EEF2FA" d="M22.5 5.5h3v24h-19v-24h3"/><path class="st9" d="M9.5 22.5v-17h-3v24h19v-3h-12c-2.2 0-4-1.8-4-4z" fill="#D5E5F2"/><path class="st17" d="M17.4 2.5c.1-.2.1-.3.1-.5 0-.8-.7-1.5-1.5-1.5s-1.5.7-1.5 1.5c0 .2 0 .3.1.5h-3.1v3h9v-3h-3.1z" fill="#607D95"/><path class="st18" d="M13 3h2.8c-.1-.2-.1-.3-.1-.5 0-.8.6-1.4 1.4-1.5-.3-.3-.7-.5-1.1-.5-.8 0-1.5.7-1.5 1.5 0 .2 0 .3.1.5h-3.1v3h9.1v-1H14c-.6 0-1-.4-1-1V3z" fill="#4B6C85"/><path class="st19" fill="#90CFF1" d="M8.5 7.5h6v6h-6z"/><path class="st20" d="M10 10V7.5H8.5v6h6V12H12c-1.1 0-2-.9-2-2z" fill="#70B7E6"/><path class="st10" fill="#91CA60" d="M8.5 15.5h15v2h-15z"/><path class="st10" fill="#91CA60" d="M8.5 25.5h9v2h-9z"/><path class="st15" d="M22.5 27h-3c-.3 0-.5-.2-.5-.5s.2-.5.5-.5h3c.3 0 .5-.2.5-.5s-.2-.5-.5-.5h-1c-.3 0-.5-.2-.5-.5s.2-.5.5-.5h1c.8 0 1.5.7 1.5 1.5s-.7 1.5-1.5 1.5z" fill="#004463"/><path class="st15" d="M21.5 25h-1c-.8 0-1.5-.7-1.5-1.5s.7-1.5 1.5-1.5h3c.3 0 .5.2.5.5s-.2.5-.5.5h-3c-.3 0-.5.2-.5.5s.2.5.5.5h1c.3 0 .5.2.5.5s-.2.5-.5.5z" fill="#004463"/><path class="st15" d="M21.5 23c-.3 0-.5-.2-.5-.5v-1c0-.3.2-.5.5-.5s.5.2.5.5v1c0 .3-.2.5-.5.5z" fill="#004463"/><path class="st15" d="M21.5 28c-.3 0-.5-.2-.5-.5v-1c0-.3.2-.5.5-.5s.5.2.5.5v1c0 .3-.2.5-.5.5z" fill="#004463"/><path class="st15" d="M25.5 32h-19C5.1 32 4 30.9 4 29.5v-24C4 4.1 5.1 3 6.5 3h5c.3 0 .5.2.5.5s-.2.5-.5.5h-5C5.7 4 5 4.7 5 5.5v24c0 .8.7 1.5 1.5 1.5h19c.8 0 1.5-.7 1.5-1.5v-24c0-.8-.7-1.5-1.5-1.5h-5c-.3 0-.5-.2-.5-.5s.2-.5.5-.5h5C26.9 3 28 4.1 28 5.5v24c0 1.4-1.1 2.5-2.5 2.5z" fill="#004463"/><path class="st15" d="M25.5 30h-19c-.3 0-.5-.2-.5-.5v-24c0-.3.2-.5.5-.5h3c.3 0 .5.2.5.5s-.2.5-.5.5H7v23h18V6h-2.5c-.3 0-.5-.2-.5-.5s.2-.5.5-.5h3c.3 0 .5.2.5.5v24c0 .3-.2.5-.5.5z" fill="#004463"/><path class="st15" d="M20.5 6h-9c-.3 0-.5-.2-.5-.5v-3c0-.3.2-.5.5-.5H14c0-1.1.9-2 2-2s2 .9 2 2h2.5c.3 0 .5.2.5.5v3c0 .3-.2.5-.5.5zM12 5h8V3h-2.6c-.2 0-.3-.1-.4-.2-.1-.1-.1-.3-.1-.5.1-.1.1-.2.1-.3 0-.6-.4-1-1-1s-1 .4-1 1c0 .1 0 .2.1.3.1.2 0 .3-.1.5-.1.1-.2.2-.4.2H12v2z" fill="#004463"/><path class="st15" d="M14.5 14h-6c-.3 0-.5-.2-.5-.5v-6c0-.3.2-.5.5-.5h6c.3 0 .5.2.5.5v6c0 .3-.2.5-.5.5zM9 13h5V8H9v5z" fill="#004463"/><path class="st15" d="M21.5 14h-5c-.3 0-.5-.2-.5-.5s.2-.5.5-.5h5c.3 0 .5.2.5.5s-.2.5-.5.5z" fill="#004463"/><path class="st15" d="M20.5 10h-4c-.3 0-.5-.2-.5-.5s.2-.5.5-.5h4c.3 0 .5.2.5.5s-.2.5-.5.5z" fill="#004463"/><path class="st15" d="M23.5 10h-1c-.3 0-.5-.2-.5-.5s.2-.5.5-.5h1c.3 0 .5.2.5.5s-.2.5-.5.5z" fill="#004463"/><path class="st15" d="M23.5 20h-13c-.3 0-.5-.2-.5-.5s.2-.5.5-.5h13c.3 0 .5.2.5.5s-.2.5-.5.5z" fill="#004463"/><path class="st15" d="M8.5 20h-.2c-.1 0-.1-.1-.2-.1-.1-.1-.1-.3-.1-.4s0-.3.1-.4c0 0 .1-.1.2-.1.2-.1.4 0 .5.1.1.1.2.3.2.4s-.1.3-.2.3c0 0-.1.1-.2.1 0 .1 0 .1-.1.1z" fill="#004463"/><path class="st15" d="M17.5 22h-7c-.3 0-.5-.2-.5-.5s.2-.5.5-.5h7c.3 0 .5.2.5.5s-.2.5-.5.5z" fill="#004463"/><path class="st15" d="M8.5 22h-.2c-.1 0-.1-.1-.2-.1s-.1-.1-.1-.2v-.2-.2c0-.1.1-.1.1-.2.2-.1.4-.1.6-.1.1 0 .1.1.2.1s.1.1.1.2v.4c0 .1-.1.1-.1.2-.1.1-.3.1-.4.1z" fill="#004463"/><path class="st15" d="M17.5 24h-7c-.3 0-.5-.2-.5-.5s.2-.5.5-.5h7c.3 0 .5.2.5.5s-.2.5-.5.5z" fill="#004463"/><path class="st15" d="M8.5 24h-.2c-.1 0-.1-.1-.2-.1-.1-.1-.1-.3-.1-.4s0-.3.1-.4c.2-.1.4-.1.6-.1.1 0 .1.1.2.1s.1.1.1.2v.2c0 .1-.1.3-.2.3 0 0-.1.1-.2.1 0 .1 0 .1-.1.1z" fill="#004463"/><path class="st15" d="M23.5 12h-7c-.3 0-.5-.2-.5-.5s.2-.5.5-.5h7c.3 0 .5.2.5.5s-.2.5-.5.5z" fill="#004463"/><path class="st15" d="M23.5 18h-15c-.3 0-.5-.2-.5-.5v-2c0-.3.2-.5.5-.5h15c.3 0 .5.2.5.5v2c0 .3-.2.5-.5.5zM9 17h14v-1H9v1z" fill="#004463"/><path class="st15" d="M17.5 28h-9c-.3 0-.5-.2-.5-.5v-2c0-.3.2-.5.5-.5h9c.3 0 .5.2.5.5v2c0 .3-.2.5-.5.5zM9 27h8v-1H9v1z" fill="#004463"/><path class="st15" d="M23.5 8h-7c-.3 0-.5-.2-.5-.5s.2-.5.5-.5h7c.3 0 .5.2.5.5s-.2.5-.5.5z" fill="#004463"/><metadata><rdf:RDF xmlns:rdf="http://www.w3.org/1999/02/22-rdf-syntax-ns#" xmlns:rdfs="http://www.w3.org/2000/01/rdf-schema#" xmlns:dc="http://purl.org/dc/elements/1.1/"><rdf:Description about="https://iconscout.com/legal#licenses" dc:title="clipboard,note,information,form,report" dc:description="clipboard,note,information,form,report" dc:publisher="Iconscout" dc:date="2017-09-07" dc:format="image/svg+xml" dc:language="en"><dc:creator><rdf:Bag><rdf:li>Jemis Mali</rdf:li></rdf:Bag></dc:creator></rdf:Description></rdf:RDF></metadata></svg>