<?xml version="1.0" encoding="utf-8"?>
<svg xmlns="http://www.w3.org/2000/svg" xmlns:xlink="http://www.w3.org/1999/xlink" version="1.1" id="Layer_1" x="0px" y="0px" viewBox="0 0 48 48" style="enable-background:new 0 0 48 48;" xml:space="preserve">
<style type="text/css">
	.st0{fill:#BD4243;}
	.st1{fill:#010101;}
	.st2{fill:#FEC367;}
	.st3{fill:none;}
	.st4{fill:#38A378;}
	.st5{fill:#58BF97;}
	.st6{fill:#E7F0F3;}
	.st7{fill:#1F9ED6;}
	.st8{fill:#D8E5EA;}
	.st9{fill:#4B7DA3;}
	.st10{fill:none;stroke:#010101;stroke-width:2;stroke-linecap:round;stroke-linejoin:round;stroke-miterlimit:10;}
	.st11{fill:#060707;}
	.st12{fill:#A15B4C;}
	.st13{fill:#58BF97;stroke:#010101;stroke-width:2;stroke-miterlimit:10;}
	.st14{fill:#3FBA8B;stroke:#010101;stroke-width:2;stroke-miterlimit:10;}
	.st15{fill:#1F9ED6;stroke:#010101;stroke-width:2;stroke-miterlimit:10;}
	.st16{fill:#347ABE;stroke:#010101;stroke-width:2;stroke-miterlimit:10;}
	.st17{fill:#E7F0F3;stroke:#010101;stroke-width:2;stroke-miterlimit:10;}
	.st18{fill:#D8E5EA;stroke:#010101;stroke-width:2;stroke-miterlimit:10;}
	.st19{fill:#EA5F6E;stroke:#010101;stroke-width:2;stroke-miterlimit:10;}
	.st20{fill:#D34A5F;stroke:#010101;stroke-width:2;stroke-miterlimit:10;}
	.st21{fill:#FAB633;stroke:#010101;stroke-width:2;stroke-miterlimit:10;}
	.st22{fill:#F89938;stroke:#010101;stroke-width:2;stroke-miterlimit:10;}
	.st23{fill:#FEC367;stroke:#010101;stroke-width:2;stroke-miterlimit:10;}
	.st24{fill:#F8AC4E;stroke:#010101;stroke-width:2;stroke-miterlimit:10;}
	.st25{fill:#5B8FAF;stroke:#010101;stroke-width:2;stroke-miterlimit:10;}
	.st26{fill:#4B7DA3;stroke:#010101;stroke-width:2;stroke-miterlimit:10;}
	.st27{fill:#F8AC4E;}
	.st28{fill:#308C66;}
	.st29{fill:#3F6A84;}
	.st30{fill:#5B8FAF;}
</style>
<path id="XMLID_1403_" class="st7" d="M40,32H8c-1.1,0-2-0.9-2-2V10c0-1.1,0.9-2,2-2h32c1.1,0,2,0.9,2,2v20C42,31.1,41.1,32,40,32z" style="fill: #1F9ED6;"/>
<path id="XMLID_1402_" class="st6" d="M40,32H8c-1.1,0-2-0.9-2-2v-4h36v4C42,31.1,41.1,32,40,32z" style="fill: #E7F0F3;"/>
<g id="XMLID_1399_">
	<path class="st1" d="M27,41h-6c-0.6,0-1-0.4-1-1v-8c0-0.6,0.4-1,1-1h6c0.6,0,1,0.4,1,1v8C28,40.6,27.6,41,27,41z M22,39h4v-6h-4V39   z" style="fill: #010101;"/>
</g>
<rect x="21" y="32" class="st8" width="6" height="8" style="fill: #D8E5EA;"/>
<g>
	<circle class="st1" cx="24" cy="29" r="1" style="fill: #010101;"/>
	<path class="st1" d="M40,7H8c-1.7,0-3,1.3-3,3v20c0,1.7,1.3,3,3,3h12v6h-5.5c-0.6,0-1,0.4-1,1s0.4,1,1,1H20h8h5.5c0.6,0,1-0.4,1-1   s-0.4-1-1-1H28v-6h12c1.7,0,3-1.3,3-3V10C43,8.3,41.7,7,40,7z M7,10c0-0.6,0.4-1,1-1h32c0.6,0,1,0.4,1,1v15H7V10z M26,39h-4v-6h4   V39z M41,30c0,0.6-0.4,1-1,1H28h-8H8c-0.6,0-1-0.4-1-1v-3h34V30z" style="fill: #010101;"/>
	<path class="st1" d="M26.3,14.3L23,17.6l-1.3-1.3c-0.4-0.4-1-0.4-1.4,0s-0.4,1,0,1.4l2,2c0.2,0.2,0.5,0.3,0.7,0.3s0.5-0.1,0.7-0.3   l4-4c0.4-0.4,0.4-1,0-1.4S26.7,13.9,26.3,14.3z" style="fill: #010101;"/>
</g>

	<metadata>
		<rdf:RDF xmlns:rdf="http://www.w3.org/1999/02/22-rdf-syntax-ns#" xmlns:rdfs="http://www.w3.org/2000/01/rdf-schema#" xmlns:dc="http://purl.org/dc/elements/1.1/">
			<rdf:Description about="https://iconscout.com/legal#licenses" dc:title="9 laptop verify accept Transaction bank transfer activity" dc:description="9 laptop verify accept Transaction bank transfer activity" dc:publisher="Iconscout" dc:date="2017-03-06" dc:format="image/svg+xml" dc:language="en">
				<dc:creator>
					<rdf:Bag>
						<rdf:li>Jemis Mali</rdf:li>
					</rdf:Bag>
				</dc:creator>
			</rdf:Description>
		</rdf:RDF>
    </metadata></svg>
