<?xml version="1.0" encoding="utf-8"?>
<svg xmlns="http://www.w3.org/2000/svg" xmlns:xlink="http://www.w3.org/1999/xlink" version="1.1" id="Layer_1" x="0px" y="0px" viewBox="0 0 48 48" style="enable-background:new 0 0 48 48;" xml:space="preserve">
<style type="text/css">
	.st0{fill:#BD4243;}
	.st1{fill:#010101;}
	.st2{fill:#FEC367;}
	.st3{fill:none;}
	.st4{fill:#38A378;}
	.st5{fill:#58BF97;}
	.st6{fill:#E7F0F3;}
	.st7{fill:#1F9ED6;}
	.st8{fill:#D8E5EA;}
	.st9{fill:#4B7DA3;}
	.st10{fill:none;stroke:#010101;stroke-width:2;stroke-linecap:round;stroke-linejoin:round;stroke-miterlimit:10;}
	.st11{fill:#060707;}
	.st12{fill:#A15B4C;}
	.st13{fill:#58BF97;stroke:#010101;stroke-width:2;stroke-miterlimit:10;}
	.st14{fill:#3FBA8B;stroke:#010101;stroke-width:2;stroke-miterlimit:10;}
	.st15{fill:#1F9ED6;stroke:#010101;stroke-width:2;stroke-miterlimit:10;}
	.st16{fill:#347ABE;stroke:#010101;stroke-width:2;stroke-miterlimit:10;}
	.st17{fill:#E7F0F3;stroke:#010101;stroke-width:2;stroke-miterlimit:10;}
	.st18{fill:#D8E5EA;stroke:#010101;stroke-width:2;stroke-miterlimit:10;}
	.st19{fill:#EA5F6E;stroke:#010101;stroke-width:2;stroke-miterlimit:10;}
	.st20{fill:#D34A5F;stroke:#010101;stroke-width:2;stroke-miterlimit:10;}
	.st21{fill:#FAB633;stroke:#010101;stroke-width:2;stroke-miterlimit:10;}
	.st22{fill:#F89938;stroke:#010101;stroke-width:2;stroke-miterlimit:10;}
	.st23{fill:#FEC367;stroke:#010101;stroke-width:2;stroke-miterlimit:10;}
	.st24{fill:#F8AC4E;stroke:#010101;stroke-width:2;stroke-miterlimit:10;}
	.st25{fill:#5B8FAF;stroke:#010101;stroke-width:2;stroke-miterlimit:10;}
	.st26{fill:#4B7DA3;stroke:#010101;stroke-width:2;stroke-miterlimit:10;}
	.st27{fill:#F8AC4E;}
	.st28{fill:#308C66;}
	.st29{fill:#3F6A84;}
	.st30{fill:#5B8FAF;}
</style>
<g>
	<path id="XMLID_971_" class="st12" d="M30,14H8c-2.2,0-4,1.8-4,4v18c0,2.2,1.8,4,4,4h28c2.2,0,4-1.8,4-4V21.4" style="fill: #A15B4C;"/>
	<circle id="XMLID_813_" class="st4" cx="37" cy="15" r="7" style="fill: #38A378;"/>
	<path id="XMLID_1243_" class="st2" d="M39,34h-8.1c-2.2,0-3.9-1.8-3.9-4v0c0-2.2,1.7-4,3.9-4H39" style="fill: #FEC367;"/>
	<g>
		<path d="M45,15c0-4.4-3.6-8-8-8c-3.7,0-6.8,2.6-7.7,6H8c-2.8,0-5,2.2-5,5v18c0,2.8,2.2,5,5,5h28c2.8,0,5-2.2,5-5V21.9    C43.4,20.5,45,18,45,15z M39,33h-8.1c-1.6,0-2.9-1.3-2.9-3s1.3-3,2.9-3H39V33z M39,25h-8.1c-2.7,0-4.9,2.2-4.9,5s2.2,5,4.9,5H39v1    c0,1.7-1.3,3-3,3H8c-1.7,0-3-1.3-3-3V18c0-1.7,1.3-3,3-3h21c0,4.4,3.6,8,8,8c0.7,0,1.4-0.1,2-0.3V25z M37,21c-3.3,0-6-2.7-6-6    s2.7-6,6-6s6,2.7,6,6S40.3,21,37,21z"/>
		<path d="M37.7,11.3c-0.1-0.1-0.2-0.2-0.3-0.2c-0.2-0.1-0.5-0.1-0.8,0c-0.1,0.1-0.2,0.1-0.3,0.2l-2,2c-0.4,0.4-0.4,1,0,1.4    s1,0.4,1.4,0l0.3-0.3v3.5c0,0.6,0.4,1,1,1s1-0.4,1-1v-3.5l0.3,0.3c0.2,0.2,0.5,0.3,0.7,0.3s0.5-0.1,0.7-0.3c0.4-0.4,0.4-1,0-1.4    L37.7,11.3z"/>
		<ellipse cx="31" cy="30" rx="1" ry="1"/>
	</g>
</g>

	<metadata>
		<rdf:RDF xmlns:rdf="http://www.w3.org/1999/02/22-rdf-syntax-ns#" xmlns:rdfs="http://www.w3.org/2000/01/rdf-schema#" xmlns:dc="http://purl.org/dc/elements/1.1/">
			<rdf:Description about="https://iconscout.com/legal#licenses" dc:title="34 wallet cash money send payment Transaction bank transfer activity" dc:description="34 wallet cash money send payment Transaction bank transfer activity" dc:publisher="Iconscout" dc:date="2017-03-06" dc:format="image/svg+xml" dc:language="en">
				<dc:creator>
					<rdf:Bag>
						<rdf:li>Jemis Mali</rdf:li>
					</rdf:Bag>
				</dc:creator>
			</rdf:Description>
		</rdf:RDF>
    </metadata></svg>
