<?xml version="1.0" encoding="UTF-8" standalone="no"?>
<!-- Created with Inkscape (http://www.inkscape.org/) -->
<svg id="svg4791" xmlns:rdf="http://www.w3.org/1999/02/22-rdf-syntax-ns#" xmlns="http://www.w3.org/2000/svg" height="320" width="640" version="1.1" xmlns:cc="http://creativecommons.org/ns#" xmlns:dc="http://purl.org/dc/elements/1.1/" viewBox="0 0 640.00001 320.00001">
 <metadata id="metadata4796">
  <rdf:RDF>
   <cc:Work rdf:about="">
    <dc:format>image/svg+xml</dc:format>
    <dc:type rdf:resource="http://purl.org/dc/dcmitype/StillImage"/>
    <dc:title/>
   </cc:Work>
  </rdf:RDF>
 </metadata>
 <g id="layer1" transform="translate(0 -732.36)">
  <g fill="#3cbc8d">
   <path id="path5341" d="m0.40355 732.36v320h640v-320h-640" fill-rule="evenodd"/>
   <path id="path5378" d="m290.76 175.09v-19.193h21.718 21.718v19.193 19.193h-21.718-21.718v-19.193z" transform="translate(0 732.36)"/>
   <path id="path5380" d="m290.76 175.09v-19.193h21.718 21.718v19.193 19.193h-21.718-21.718v-19.193z" transform="translate(0 732.36)"/>
   <path id="path5382" d="m290.76 175.09v-19.193h21.718 21.718v19.193 19.193h-21.718-21.718v-19.193z" transform="translate(0 732.36)"/>
   <path id="path5384" d="m290.76 175.09v-19.193h21.718 21.718v19.193 19.193h-21.718-21.718v-19.193z" transform="translate(0 732.36)"/>
   <path id="path5386" d="m290.76 175.09v-19.193h21.718 21.718v19.193 19.193h-21.718-21.718v-19.193z" transform="translate(0 732.36)"/>
   <path id="path5388" d="m290.76 175.09v-19.193h21.718 21.718v19.193 19.193h-21.718-21.718v-19.193z" transform="translate(0 732.36)"/>
   <path id="path5390" d="m290.76 175.09v-19.193h21.718 21.718v19.193 19.193h-21.718-21.718v-19.193z" transform="translate(0 732.36)"/>
   <path id="path5392" d="m290.76 175.09v-19.193h21.718 21.718v19.193 19.193h-21.718-21.718v-19.193z" transform="translate(0 732.36)"/>
   <path id="path5394" d="m290.76 175.09v-19.193h21.718 21.718v19.193 19.193h-21.718-21.718v-19.193z" transform="translate(0 732.36)"/>
   <path id="path5396" d="m290.76 175.09v-19.193h21.718 21.718v19.193 19.193h-21.718-21.718v-19.193z" transform="translate(0 732.36)"/>
   <path id="path5398" d="m290.76 175.09v-19.193h21.718 21.718v19.193 19.193h-21.718-21.718v-19.193z" transform="translate(0 732.36)"/>
   <path id="path5400" d="m290.76 175.09v-19.193h21.718 21.718v19.193 19.193h-21.718-21.718v-19.193z" transform="translate(0 732.36)"/>
   <path id="path5402" d="m290.76 175.09v-19.193h21.718 21.718v19.193 19.193h-21.718-21.718v-19.193z" transform="translate(0 732.36)"/>
   <path id="path5404" d="m290.76 175.09v-19.193h21.718 21.718v19.193 19.193h-21.718-21.718v-19.193z" transform="translate(0 732.36)"/>
   <path id="path5406" d="m290.76 137.46v-16.92h21.718 21.718v16.92 16.92h-21.718-21.718v-16.92z" transform="translate(0 732.36)"/>
   <path id="path5408" d="m290.76 137.46v-16.92h21.718 21.718v16.92 16.92h-21.718-21.718v-16.92z" transform="translate(0 732.36)"/>
  </g>
  <g stroke-opacity="0" fill="none">
   <path id="path6909" d="m155.89 152.5v-116.67h156.83 156.83v116.67 116.67h-156.83-156.83v-116.67zm309.61 0v-113.14h-153.04-153.04v113.14 113.14h153.04 153.04v-113.14z" transform="translate(0 732.36)"/>
   <path id="path6911" d="m155.89 152.5v-116.67h156.83 156.83v116.67 116.67h-156.83-156.83v-116.67zm309.61 0v-113.14h-153.04-153.04v113.14 113.14h153.04 153.04v-113.14z" transform="translate(0 732.36)"/>
   <path id="path6913" d="m160.68 174.97c0-49.169 0.0593-69.209 0.13178-44.533 0.0725 24.676 0.0725 64.905-0.00001 89.398-0.0725 24.493-0.13178 4.3036-0.13177-44.866z" transform="translate(0 732.36)"/>
   <path id="path6915" d="m155.89 152.5v-116.67h156.83 156.83v116.67 116.67h-156.83-156.83v-116.67zm309.61 0v-113.14h-153.04-153.04v113.14 113.14h153.04 153.04v-113.14z" transform="translate(0 732.36)"/>
   <path id="path6917" d="m155.89 152.5v-116.67h156.83 156.83v116.67 116.67h-156.83-156.83v-116.67zm309.61 0v-113.14h-153.04-153.04v113.14 113.14h153.04 153.04v-113.14z" transform="translate(0 732.36)"/>
  </g>
  <g id="g6967" transform="translate(7.5,5)">
   <g stroke="#fff" stroke-width="1px" fill="none">
    <path id="path5347" d="m200 832.36v150"/>
    <path id="path5358" d="m245 832.36v150"/>
    <path id="path5362" d="m290 832.36v150"/>
    <path id="path5364" d="m335 832.36v150"/>
    <path id="path5366" d="m380 832.36v150"/>
    <path id="path5368" d="m425 832.36v150"/>
    <path id="path5370" d="m175 852.36h275"/>
    <path id="path5372" d="m175 887.36h275"/>
    <path id="path5374" d="m175 927.36h275"/>
    <path id="path5376" d="m175 962.36h275"/>
   </g>
   <g fill="#ff5722">
    <path id="path5423" d="m290.76 907.36v-19.279h21.718 21.718v19.279 19.279h-21.718-21.718v-19.279z"/>
    <path id="path5425" d="m335.76 907.36v-19.279h21.718 21.718v19.279 19.279h-21.718-21.718v-19.279z"/>
    <path id="path5427" d="m380.78 907.36v-19.279h21.718 21.718v19.279 19.279h-21.718-21.718v-19.279z"/>
   </g>
   <g fill="#fff" fill-rule="evenodd">
    <path id="path6957" d="m165 782.36v210h-5v-210h5"/>
    <path id="path6959" d="m165 782.36h-5v-5h305v5z"/>
    <path id="path6961" d="m460 782.36h5v215h-5z"/>
    <path id="path6963" d="m160 992.36v5h300v-5z"/>
    <path id="path6965" d="m165 822.36h295v-5h-295z"/>
   </g>
  </g>
 </g>
</svg>
