<?xml version="1.0" encoding="UTF-8" standalone="no"?>
<svg
   xmlns:dc="http://purl.org/dc/elements/1.1/"
   xmlns:cc="http://creativecommons.org/ns#"
   xmlns:rdf="http://www.w3.org/1999/02/22-rdf-syntax-ns#"
   xmlns:svg="http://www.w3.org/2000/svg"
   xmlns="http://www.w3.org/2000/svg"
   xmlns:xlink="http://www.w3.org/1999/xlink"
   xmlns:sodipodi="http://sodipodi.sourceforge.net/DTD/sodipodi-0.dtd"
   xmlns:inkscape="http://www.inkscape.org/namespaces/inkscape"
   version="1.1"
   id="svg2"
   viewBox="0 0 571.22274 263.54257"
   height="263.54257"
   width="571.22272"
   inkscape:version="0.91 r13725"
   sodipodi:docname="wave1.svg">
  <sodipodi:namedview
     pagecolor="#ffffff"
     bordercolor="#666666"
     borderopacity="1"
     objecttolerance="10"
     gridtolerance="10"
     guidetolerance="10"
     inkscape:pageopacity="0"
     inkscape:pageshadow="2"
     inkscape:window-width="1920"
     inkscape:window-height="1058"
     id="namedview11"
     showgrid="false"
     inkscape:zoom="1.426041"
     inkscape:cx="134.82482"
     inkscape:cy="120.47338"
     inkscape:window-x="1912"
     inkscape:window-y="-8"
     inkscape:window-maximized="1"
     inkscape:current-layer="layer1"
     fit-margin-top="0"
     fit-margin-left="0"
     fit-margin-right="0"
     fit-margin-bottom="0" />
  <defs
     id="defs4">
    <linearGradient
       id="linearGradient4155">
      <stop
         style="stop-color:#247054;stop-opacity:1"
         offset="0"
         id="stop4157" />
      <stop
         style="stop-color:#247054;stop-opacity:0.778"
         offset="1"
         id="stop4159" />
    </linearGradient>
    <linearGradient
       id="linearGradient6199">
      <stop
         id="stop6201"
         offset="0"
         style="stop-color:#3cbc8d;stop-opacity:1;" />
      <stop
         id="stop6203"
         offset="1"
         style="stop-color:#247054;stop-opacity:1" />
    </linearGradient>
    <linearGradient
       gradientTransform="matrix(0.39673915,0,0,0.75166012,30.011656,-41.742154)"
       gradientUnits="userSpaceOnUse"
       y2="-142.42792"
       x2="-51.512688"
       y1="-156.15376"
       x1="1376.5201"
       id="linearGradient6205"
       xlink:href="#linearGradient6199" />
    <linearGradient
       inkscape:collect="always"
       xlink:href="#linearGradient4155"
       id="linearGradient4153"
       x1="31.776262"
       y1="-238.39809"
       x2="564.43066"
       y2="-35.037891"
       gradientUnits="userSpaceOnUse" />
  </defs>
  <metadata
     id="metadata7">
    <rdf:RDF>
      <cc:Work
         rdf:about="">
        <dc:format>image/svg+xml</dc:format>
        <dc:type
           rdf:resource="http://purl.org/dc/dcmitype/StillImage" />
        <dc:title></dc:title>
      </cc:Work>
    </rdf:RDF>
  </metadata>
  <g
     transform="translate(-6.5315547,267.53478)"
     id="layer1">
    <path
       id="path4156"
       d="m 6.5315547,-267.53478 571.2226953,0 0,238.631006 C 204.26703,54.68958 183.8068,-107.20255 6.5315547,-8.9037741 Z"
       style="opacity:1;fill:url(#linearGradient4153);fill-opacity:1;fill-rule:evenodd;stroke:none;stroke-width:2.63454175px;stroke-linecap:butt;stroke-linejoin:miter;stroke-opacity:1"
       inkscape:connector-curvature="0"
       sodipodi:nodetypes="ccccc" />
    <path
       style="opacity:0.075;fill:#24cd54;fill-opacity:1;stroke:none;stroke-width:1;stroke-miterlimit:4;stroke-dasharray:none;stroke-opacity:0.62460567"
       d="m 0.04609004,129.31316 0,-128.73636476 166.26940996,0 c 132.72375,0 166.20292,0.1768487 165.93992,0.87655266 -3.52638,9.3817681 -94.0358,246.4382821 -94.20558,246.7372521 -0.29753,0.52396 -7.90035,-1.14669 -38.27549,-8.41069 -49.54117,-11.84741 -61.28851,-13.68975 -87.52952,-13.72723 -19.44877,-0.0278 -24.138327,0.39701 -39.434184,3.57205 -18.009372,3.7383 -38.536161,11.23726 -59.027201,21.56417 -6.9770206,3.51622 -12.92216101,6.49831 -13.21142338,6.62687 -0.28926237,0.12857 -0.52593158,-57.69761 -0.52593158,-128.50261 z"
       id="path4193"
       inkscape:connector-curvature="0"
       transform="translate(6.5315547,-267.53478)" />
    <path
       style="opacity:0.164;fill:#24cd54;fill-opacity:1;stroke:none;stroke-width:1;stroke-miterlimit:4;stroke-dasharray:none;stroke-opacity:0.62460567"
       d="m 351.01777,262.78851 c -47.23827,-1.27685 -82.44068,-6.53093 -147.61147,-22.03153 -30.17055,-7.17594 -33.83633,-8.0312 -36.46459,-8.5076 -0.96421,-0.17477 -2.30262,-0.48355 -2.97426,-0.68619 -0.67164,-0.20264 -2.08455,-0.52499 -3.13979,-0.71635 -1.05525,-0.19135 -1.96941,-0.40761 -2.03147,-0.48059 -0.0621,-0.073 11.21521,-29.7952 25.0606,-66.04942 13.84538,-36.25422 33.5788,-87.926997 43.85204,-114.828398 l 18.67861,-48.91163676 161.53362,0 c 88.84349,0 161.53362,0.19916741 161.53362,0.44259426 0,1.0920817 -97.02735,254.5032105 -97.58246,254.8609305 -0.57872,0.37295 -13.38329,1.96973 -28.2905,3.52795 -13.47407,1.40841 -34.27379,2.76095 -47.68446,3.10076 -7.71366,0.19545 -16.86487,0.44918 -20.33602,0.56383 -3.47115,0.11466 -14.51571,-0.0133 -24.54347,-0.28435 z"
       id="path4197"
       inkscape:connector-curvature="0"
       transform="translate(6.5315547,-267.53478)" />
    <path
       style="opacity:0.024;fill:#24cd54;fill-opacity:1;stroke:none;stroke-width:1;stroke-miterlimit:4;stroke-dasharray:none;stroke-opacity:0.62460567"
       d="m 416.5839,261.1695 c 0,-0.25342 21.58829,-57.0182 47.97397,-126.14396 C 518.11061,-5.2730889 515.45821,1.6863119 515.45869,1.4716125 c 1.9e-4,-0.086375 -4.81192,-0.25301 -10.69359,-0.3702993 -5.88167,-0.11728935 6.58291,-0.28328794 27.69906,-0.36888569 l 38.39301,-0.15563227 0,118.83351476 0,118.8335 -2.62966,0.68688 c -12.88332,3.36515 -54.74981,11.17369 -80.81815,15.07344 -27.59594,4.12827 -70.82546,8.50178 -70.82546,7.16537 z"
       id="path4201"
       inkscape:connector-curvature="0"
       transform="translate(6.5315547,-267.53478)" />
    <path
       style="opacity:0.02399998;fill:#24cd54;fill-opacity:1;stroke:none;stroke-width:1;stroke-miterlimit:4;stroke-dasharray:none;stroke-opacity:0.62460567"
       d="m 0.04609004,129.25223 0,-128.68041627 L 163.96143,0.70343087 C 254.11487,0.7758203 326.45005,0.94906259 324.70628,1.0884137 L 321.53577,1.3417794 274.88234,123.50135 c -29.96861,78.47124 -46.38986,122.34381 -45.91644,122.67476 1.21228,0.84745 0.59389,0.71766 -19.34702,-4.06051 -59.93977,-14.36256 -70.2327,-16.0478 -98.07529,-16.05766 -19.869931,-0.007 -25.537847,0.5681 -42.074531,4.2694 -16.870648,3.77604 -39.458077,12.36618 -58.76366,22.34816 -5.5921469,2.89143 -10.27818787,5.25715 -10.41342437,5.25715 -0.13523651,0 -0.24588459,-57.90619 -0.24588459,-128.68042 z"
       id="path4203"
       inkscape:connector-curvature="0"
       transform="translate(6.5315547,-267.53478)" />
  </g>
</svg>
